<svg version="1.2" xmlns="http://www.w3.org/2000/svg" viewBox="0 0 820 212" width="820" height="212">
        <title>wazuh-main-logo</title>
        <style>
                .s0 { fill: #999999 } 
        </style>
        <path id="Text layer 4" class="s0" aria-label="cyber-armor.net"  d="m55.2 81.9c-13.4 0-25.1 9.5-25.1 22.2 0 12 10.5 22.2 22.7 22.2 5.9 0 14.1-1.5 14.8-2.7 1-1.5 3-5.8 3.3-7.4 0.1-0.8 0.2-1.7-0.7-1.7-0.5 0-2.8 0.4-3 1.2-0.4 1.2-1.2 3.5-3.8 4.9-2.6 1.5-5.7 2.5-8.4 2.4-10.6-0.3-16.6-10.5-16.6-20.5 0-8.4 5.1-17.6 15.2-17.6 4.2 0 8.5 1.1 9.9 2.4 0.8 0.8 2.2 2.5 2.5 5.2 0.2 1.5 1.4 2 2.2 2 0.6 0.1 1.3-0.9 1.3-1.5-0.1-3.4-0.3-5.1-0.5-7.1-0.2-0.9-0.4-1.9-0.9-2-1.2-0.4-4.6-0.8-5.7-1.2-1.3-0.4-5-0.8-7.2-0.8zm19.6 3.1c4 0.1 6.8 4.8 8 6.3 3.6 4.7 4.8 6.5 7.8 11.6 0.3 0.6 1.2 1.4 1.2 4v10.4c0 1.3-0.2 2.4-1.3 3.3-1.6 1.4-3.2 1.9-5.3 2.2-1.2 0.3-0.8 2.6 0 2.6 3.7 0 6.6-0.6 10.7-0.6 3.9 0 6 0.6 9.9 0.6 1.1 0 1.2-2.3 0-2.6-2.1-0.3-3.5-0.8-5.2-2.2-1-0.9-1.3-2-1.3-3.3-0.1-2.8 0.1-7.3 0-10.4-0.1-2.5 0.1-2.2 1.9-5 3.4-5.4 4.4-5.9 7.6-10.8 1.4-2 4.5-6 8.5-6.6 0.5-0.1 0.9-2 0-2-3.1 0-4.3 0.1-7.4 0.1h-7.2c-0.9 0-1 2.2-0.2 2.3 2.6 0.3 4.8 1.9 3.6 4.2-1.7 3.1-4.3 6.7-6.6 9.7-2.4 3-1.4 3.2-3.7 0-2.7-3.8-3.4-4.2-7-10-1.5-2.5-0.2-3.7 2.7-4 0.7-0.1 0.7-2.1 0-2.1-3.9 0-5.2 0.2-8.6 0.2-3.2 0-5.2-0.2-8.4-0.2-0.9 0-0.5 2.2 0.3 2.3zm76.4 27.9c0 5.6-3.7 9.3-9 9.3-1.8 0-3.6-0.6-4.3-1.3-0.8-0.8-1.1-2.2-1.2-3.4-0.1-3.4-0.2-7.5 0-11.4 0-0.8 0.1-1.2 0.8-1.6 0.6-0.5 1.9-0.7 3.1-0.7 3.5 0 6 0.9 7.2 1.6 1.9 1 3.4 2.5 3.4 7.5zm-10 12.4c4.5 0 8.6 0 11.3-1.6 2.5-1.3 7-4 7-11.1 0-7.5-5.7-9.1-9.9-10.3-0.4-0.1-0.3-0.6 0-0.7 2.3-0.9 4.2-1.5 5.7-2.8 1-1 2.2-3.7 2.2-6.6 0-7.1-6.2-9.8-16.2-9.8-4.1 0-6.3 0.5-9 0.5-3.2 0-5.5-0.2-8.4-0.2-0.9 0-0.5 2.2 0.1 2.4 2.7 0.6 2.9 1 4.3 2.4 0.7 0.7 0.9 2.6 0.9 4.4v25.7c0 1.7-0.6 2.8-2 3.9-1.3 1.2-2.1 1.2-4.5 1.4-0.6 0.1-0.6 2.3 0 2.3 1.9 0 6.4-0.5 9.3-0.5 3 0 7.8 0.6 9.2 0.6zm-4.5-26.7c-0.2-5.2-0.2-5.6-0.1-10.3 0.1-1.9 0.9-2.9 4.7-2.9 7.8 0 8.8 4 8.8 7.6 0 3.8-1.9 5.6-2.9 6.2-3.4 1.8-7.2 1.8-8.4 1.7-1.2-0.1-2-0.2-2.1-2.3zm54.3 6.1c1.1 0.2 2.6 0.6 3.2 2.5 0.2 0.4 0.8 1.8 1.8 1.8 0.6 0 0.7-0.5 0.6-1.1-0.2-3.3-0.3-6.2 0-9.5 0.1-0.6-0.5-1-0.9-1-0.3 0-1.2 0.9-1.4 1.2-0.3 0.8-0.6 1.1-1.2 1.7-0.8 0.6-1.9 0.9-3 0.9h-8.7c-0.6 0-0.7-0.7-0.7-1.4 0-3.2 0.1-3.6 0.2-6.7 0.1-1.8 0.5-4.4 0.6-4.9 0.1-0.9 0.9-1.7 1.7-1.7h10.6c1.7 0 3 0.3 4.2 1.7 0.7 0.6 1.5 2.1 2 3.5 0.2 0.5 0.3 0.7 0.8 0.7 0.4 0 1.1-0.2 1.1-0.6 0-2.2-0.6-6.2-1.1-8.6-0.1-0.5-0.8-0.6-1.2-0.6-1.8-0.1-14.3 0.3-23.5 0.3-3.1 0-5.2-0.2-8.1-0.2-0.8 0-0.6 1.9 0 2 2.7 0.7 3 0.6 4.3 2 0.8 0.8 0.9 3 0.9 4.7v26.2c0 1.6-0.6 2.4-1.9 3.5-1.4 1.2-2.3 1.4-4.5 1.9-0.6 0.1-0.5 2.3 0 2.3 0 0 7.3-0.6 10.7-0.6 6.8 0 14.9 0.5 24.3 0.5 0.7 0 0.8-0.6 0.9-1.1 0.6-2.1 1.4-5.6 1.7-8.1 0-0.5-0.4-0.8-0.9-0.8-0.6 0-1.2 0.1-1.5 0.7-0.5 1-2 3.4-3.2 4.3-0.9 0.7-4.5 1.1-4.8 1.1h-8.8c-3 0-4.2-2.1-4.3-4.8-0.1-3.6-0.2-6.4-0.2-10.3 0-1.1 0.8-1.5 1.7-1.6 3.4-0.5 5.8-0.3 8.6 0.1zm32.1 2.5c0-0.8 0.3-1.4 1-1.3 1.3 0.1 3.6 0.5 5.5 1.4 1.5 0.7 2.2 1.4 3 2.6 4.7 7.2 5.5 9 8.8 12.8 2.5 2.9 7.1 3.6 11.1 3.6 1.7 0 4-0.8 4.9-1.4 0.6-0.4 0.9-1.9 0.2-1.9-3.3-0.1-4.7 0.8-7.5-1.9-6.3-5.7-8.1-10.3-12.4-16.4-0.3-0.4-0.3-0.5 0-0.6 0.9-0.3 2.6-1.4 4-2.7 1.1-0.9 3.5-5 3.5-7.9 0-7-7.3-11.1-17.4-11.1-4 0-5.8 0.6-8.4 0.6-3.5 0-6.2-0.3-9.1-0.3-0.9 0-0.5 2.2 0.1 2.4 2.7 0.6 2.9 0.7 4.3 2.1 0.7 0.8 0.9 2.9 0.9 4.7v25.1c0 1.6-0.7 2.7-2 3.9-1.4 1.3-2.5 1.7-4.5 2.1-0.6 0.2-0.6 2.4 0 2.4 1.9 0 6.9-0.6 11.2-0.6 3.8 0 8.2 0.6 9.6 0.6 0.7 0 0.6-2.6 0-2.7-4.4-1.1-6.4-2.7-6.5-5.3-0.1-3.5-0.2-6.4-0.3-10.2zm0-6.5c-0.1-5.1 0.1-7.3 0.3-12 0.1-2 0.6-3.6 4.4-3.6 7.8 0 9 4.8 9 8.5 0 3.9-0.8 6.3-3.1 7.6-1.8 1.1-3.2 1.9-7.3 1.9-2.1 0-3.2 0.2-3.3-2.4zm42.9 8.3c6.4-0.6 12.5-1.5 18.5-2.3 1.6-0.2 1.9-2.8 2.1-5.1 0-0.4-0.4-0.6-0.8-0.6-6.4 0.7-12.8 1.5-19.2 2.4-1 0.1-1.4 3-1.6 5.1 0 0.4 0.1 0.6 1 0.5zm27.2 16.3c2.7 0 4.4-0.5 7.1-0.5 3.9 0 5.9 0.5 9.9 0.5 0.9 0 0.9-2.1 0-2.3-1.3-0.3-3.1-1.2-4.2-2.8-0.4-0.7-0.3-1.9-0.1-3.1 0.4-1.6 0.4-1.1 1.6-4 0.4-0.9 0.6-1.2 1.2-1.2h14.2c1.4 0 1.7 0.1 1.9 0.7 1 2.5 0.9 1.7 1.4 4 0.3 1.3 0.7 2.6-0.2 3.9-0.9 1.5-2.4 2.2-4 2.5-0.6 0.1-1 2.3-0.1 2.3 3.3 0 6.4-0.5 10.4-0.5 3.8 0 5.9 0.5 9.6 0.5 1.2 0 0.7-2.1 0-2.3-1.7-0.3-3.3-1.5-4.5-2.7-1.8-1.8-2.7-3.2-3.5-5.4-4.7-11.7-7.7-20.3-12.5-32.6-0.2-0.5-0.3-0.8-0.7-0.8-0.3 0-0.6 0.4-1.4 1.3-0.6 0.7-3.6 2.7-4.5 2.9-0.1 0.1-0.2 1.9-0.5 3-0.2 1-0.5 1.9-0.7 2.5-4.8 11-6.7 15.5-11.6 25.2-0.8 1.7-1.5 2.7-3.1 3.9-1.9 1.5-3.6 2.1-5.7 2.7-0.6 0.2-0.8 2.3 0 2.3zm23.3-32c0.6-1.4 0.6-1.4 1.2 0 1.1 2.9 4.8 12.6 5.5 15.2 0.3 0.9 0.2 0.9-0.8 0.9h-11.7c-1.2 0-1.7-0.1-1.3-0.9 2.2-4.6 5.4-11.2 7.1-15.2zm44.2 13.9c0-0.8 0.3-1.4 1-1.3 1.3 0.1 3.6 0.5 5.5 1.4 1.5 0.7 2.2 1.4 3 2.6 4.7 7.2 5.5 9 8.8 12.8 2.5 2.9 7.1 3.6 11.1 3.6 1.7 0 4-0.8 4.9-1.4 0.6-0.4 0.9-1.9 0.2-1.9-3.3-0.1-4.7 0.8-7.5-1.9-6.3-5.7-8.1-10.3-12.4-16.4-0.3-0.4-0.3-0.5 0-0.6 0.9-0.3 2.6-1.4 4-2.7 1.1-0.9 3.5-5 3.5-7.9 0-7-7.3-11.1-17.4-11.1-4 0-5.8 0.6-8.4 0.6-3.5 0-6.2-0.3-9.1-0.3-0.9 0-0.5 2.2 0.1 2.4 2.7 0.6 2.9 0.7 4.3 2.1 0.7 0.8 0.9 2.9 0.9 4.7v25.1c0 1.6-0.7 2.7-2 3.9-1.4 1.3-2.5 1.7-4.5 2.1-0.6 0.2-0.6 2.4 0 2.4 1.9 0 6.9-0.6 11.2-0.6 3.8 0 8.2 0.6 9.6 0.6 0.7 0 0.6-2.6 0-2.7-4.4-1.1-6.4-2.7-6.5-5.3-0.1-3.5-0.2-6.4-0.3-10.2zm0-6.5c-0.1-5.1 0.1-7.3 0.3-12 0.1-2 0.6-3.6 4.4-3.6 7.8 0 9 4.8 9 8.5 0 3.9-0.8 6.3-3.1 7.6-1.8 1.1-3.2 1.9-7.3 1.9-2.1 0-3.2 0.2-3.3-2.4zm75.5 24.4c0.9-1.9 15.2-30.5 15.2-30.5 0.6-1.2 0.9-1.5 1 0 0.4 8.9 1.1 14.4 0.8 23.5 0 1.3-0.5 2-1.4 2.9-1.1 1-1 1.3-3.5 1.9-0.6 0.2-0.6 2.4 0.3 2.4 1.6 0 6.8-0.4 11.1-0.4 3.4 0 6.1 0.4 8.2 0.4 1 0 0.6-2.2 0-2.4-2.1-0.3-3-0.9-4.6-2.1-0.9-0.8-1.4-1.5-1.6-2.7-1-11.5-1.2-18-1.3-29.6 0-1.2 0-2.2 1.1-3 1.8-1.1 1.9-0.6 4.2-1.3 0.6-0.2 1.3-2.2 0.6-2.1-3.2 0.4-5.4 0.9-9 0.9h-4.6c-0.5 0-1.7 3.3-2.7 5.4-4.7 10.9-6.5 15.9-12.2 26.8-0.6 1.2-1.1 1.1-1.6-0.2-5.4-12.3-8.7-20.3-13.8-32.3-0.3-0.7-8 0.7-15.4-0.5-0.8-0.2-0.7 2.1 0.1 2.3 1.7 0.4 4.4 0.9 5.8 2.4 1.2 1.3 1.1 1.9 1.1 3.6 0 5.5-1.4 16.8-3.1 28.6-0.1 0.8-0.3 1.8-1.3 2.4-1.4 1-2.2 1.1-4.4 1.5-0.7 0.1-0.8 2.3 0 2.3 2.4 0 5-0.4 8.1-0.4 3.1 0 5 0.4 7.7 0.4 1.2 0 0.6-2.2 0-2.3-2.2-0.4-2.5-0.7-3.7-1.8-1.1-1.1-2-1.9-2-3.6 0.5-8.9 1.4-14.3 2.3-23.4 0.1-1 0.5-0.9 0.9 0 5.7 11.9 9.1 21 14 30.7 0.9 1.8 2.6 2.5 3.7 0.2zm42.1-20.5c0 12.1 10.4 21.8 23.7 21.8 16.4 0 24.9-10.6 24.9-22.2 0-12.8-11.6-22.1-24.9-22.1-12.8 0-23.7 10.9-23.7 22.5zm23.1-19.5c12 0 17.1 10.5 17.1 20 0 7.4-3.4 17.8-14.9 17.8-11.2 0-16.8-8.7-16.8-19.7 0-8.9 3.4-18.1 14.6-18.1zm46.5 22.1c0-0.8 0.3-1.4 1-1.3 1.3 0.1 3.6 0.5 5.5 1.4 1.5 0.7 2.2 1.4 3 2.6 4.7 7.2 5.5 9 8.8 12.8 2.5 2.9 7.1 3.6 11.1 3.6 1.7 0 4-0.8 4.9-1.4 0.6-0.4 0.9-1.9 0.2-1.9-3.3-0.1-4.7 0.8-7.5-1.9-6.3-5.7-8.1-10.3-12.4-16.4-0.3-0.4-0.3-0.5 0-0.6 0.9-0.3 2.6-1.4 4-2.7 1.1-0.9 3.5-5 3.5-7.9 0-7-7.3-11.1-17.4-11.1-4 0-5.8 0.6-8.4 0.6-3.5 0-6.2-0.3-9.1-0.3-0.9 0-0.5 2.2 0.1 2.4 2.7 0.6 2.9 0.7 4.3 2.1 0.7 0.8 0.9 2.9 0.9 4.7v25.1c0 1.6-0.7 2.7-2 3.9-1.4 1.3-2.5 1.7-4.5 2.1-0.6 0.2-0.6 2.4 0 2.4 1.9 0 6.9-0.6 11.2-0.6 3.8 0 8.2 0.6 9.6 0.6 0.7 0 0.6-2.6 0-2.7-4.4-1.1-6.4-2.7-6.5-5.3-0.1-3.5-0.2-6.4-0.3-10.2zm0-6.5c-0.1-5.1 0.1-7.3 0.3-12 0.1-2 0.6-3.6 4.4-3.6 7.8 0 9 4.8 9 8.5 0 3.9-0.8 6.3-3.1 7.6-1.8 1.1-3.2 1.9-7.3 1.9-2.1 0-3.2 0.2-3.3-2.4zm50.5 15.3c-3 0-5.5 2.3-5.5 5.1 0 2.9 2.5 5.2 5.5 5.2 3.1 0 5.5-2.3 5.5-5.2 0-2.8-2.4-5.1-5.5-5.1zm18.2 9.3c2.9 0 4.6-0.4 7.5-0.4 3 0 4.2 0.4 7.6 0.4 1.2 0 1-2.2 0.3-2.3-2.1-0.3-2.4-0.7-3.5-1.8-0.8-0.9-1-1.8-1.1-3.1-0.2-5.8 0.2-18.6 0.4-24.3 0.1-0.9 0.5-1.8 2.5 0.3 10.9 11.6 16.7 18 26.8 29.7 0.8 0.8 2.8 2.5 5 2.5 1.5 0 2.5-1.1 2.5-2.5 0-13.7-0.3-21.2 0.5-34.7 0.1-1.2 1.3-2.2 1.9-2.5 0.6-0.5 1.5-1.3 3.5-1.5 0.7 0 0.4-2.1 0-2.1-3 0-5 0.4-8.3 0.4-3.4 0-5.2-0.4-8.8-0.4-0.5 0-0.4 2 0 2.1 1.3 0.4 6.8 1.5 6.9 4.4 0.4 10.5 0.7 15.4 0.3 25.2-0.1 2.5-1.3 0.5-1.8 0-10.9-11.6-16.3-18.7-27-30.5-0.5-0.6-0.8-1.4-1.6-1.4-5.1 0-9 0.2-14.4 0-0.9 0-0.9 2.2 0 2.2 1.1 0.1 4.3 0.3 6.4 2.7 0.8 0.9 0.6 1.5 0.6 3.4 0 10.6 0 16-0.7 26.3-0.1 1.6-0.2 2.9-1.5 4.1-1.1 1.2-2.2 1.2-4 1.5-0.6 0.1-0.9 2.3 0 2.3zm82.1-20.6c1.1 0.2 2.6 0.6 3.2 2.5 0.2 0.4 0.8 1.8 1.8 1.8 0.6 0 0.7-0.5 0.6-1.1-0.2-3.3-0.3-6.2 0-9.5 0.1-0.6-0.5-1-0.9-1-0.3 0-1.2 0.9-1.4 1.2-0.3 0.8-0.6 1.1-1.2 1.7-0.8 0.6-1.9 0.9-3 0.9h-8.7c-0.6 0-0.7-0.7-0.7-1.4 0-3.2 0.1-3.6 0.2-6.7 0.1-1.8 0.5-4.4 0.6-4.9 0.1-0.9 0.9-1.7 1.7-1.7h10.6c1.7 0 3 0.3 4.2 1.7 0.7 0.6 1.5 2.1 2 3.5 0.2 0.5 0.3 0.7 0.8 0.7 0.4 0 1.1-0.2 1.1-0.6 0-2.2-0.6-6.2-1.1-8.6-0.1-0.5-0.8-0.6-1.2-0.6-1.8-0.1-14.3 0.3-23.5 0.3-3.1 0-5.2-0.2-8.1-0.2-0.8 0-0.6 1.9 0 2 2.7 0.7 3 0.6 4.3 2 0.8 0.8 0.9 3 0.9 4.7v26.2c0 1.6-0.6 2.4-1.9 3.5-1.4 1.2-2.3 1.4-4.5 1.9-0.6 0.1-0.5 2.3 0 2.3 0 0 7.3-0.6 10.7-0.6 6.8 0 14.9 0.5 24.3 0.5 0.7 0 0.8-0.6 0.9-1.1 0.6-2.1 1.4-5.6 1.7-8.1 0-0.5-0.4-0.8-0.9-0.8-0.6 0-1.2 0.1-1.5 0.7-0.5 1-2 3.4-3.2 4.3-0.9 0.7-4.5 1.1-4.8 1.1h-8.8c-3 0-4.2-2.1-4.3-4.8-0.1-3.6-0.2-6.4-0.2-10.3 0-1.1 0.8-1.5 1.7-1.6 3.4-0.5 5.8-0.3 8.6 0.1zm54.1-17.9c4.4 0 4.3 1.8 4.7 3.4 0.2 0.6 0.8 2.1 1.6 2.2 0.8 0.1 1.2-1 1.2-1.8 0.3-2.8 0.7-7.1 1.7-8.8 0.3-0.6-0.4-1.2-0.7-1.2-0.4 0-1.6 0.4-2.4 1.2-1.1 1.2-3 1.2-5.1 1.2h-27.1c-1.8 0-3.9-0.4-4.4-1.3-0.4-0.7-1.5-2-1.9-2-0.3 0-1.1 0-1.3 1.4-0.4 2.7-0.4 6.1-1.7 8.6-0.4 0.8-0.9 2.4 0.2 2.4 1 0 2.8-1.9 3.2-2.6 1-1.6 2.9-2.7 5-2.7 4.3 0 5.6-0.1 7.4 0.2 1.1 0.2 1.2 1.7 1.2 2.8v27.6c0 1.4-0.2 2.4-1.3 3.3-1.6 1.4-3.1 1.9-5.2 2.2-1.1 0.3-0.8 2.4 0 2.4 3.7 0 6.1-0.7 10-0.7 4.2 0 6.6 0.7 10.5 0.7 1 0 1.1-2.1 0-2.4-2.1-0.3-3.5-0.8-5.2-2.2-1-0.9-1.3-1.9-1.3-3.3v-27.6c0-1.2 0.2-2.7 1.1-2.8 1.2-0.1 6.3-0.2 9.8-0.2z"/>
</svg>
