<svg version="1.2" xmlns="http://www.w3.org/2000/svg" viewBox="0 0 300 70" width="300" height="70">
        <title>New Project</title>
        <style>
                .s0 { fill: #cccccc } 
                .s1 { fill: #ff0000 } 
        </style>
        <path id="XDR" class="s0" aria-label="XDR."  d="m107.5 6.3q-0.6 0.8-1 0.8-0.5 0-0.5-0.5l0.5-0.6h0.2q0.8 0 0.8 0.3zm-1.3 21.4q0 0.4-0.5 0.9v-0.6q0-0.6 0.2-0.6 0.3 0 0.3 0.3zm-4-1.7l0.4 0.8-0.8 0.7q-0.3-0.5-0.3-1 0-0.6 0.6-0.5zm3.5 2.8q0 1-2.3 2.3v-0.7q-1.4-0.4-1.4-0.7l1.7-0.8q0.3-0.7 0.9-0.7 1.1 0 1.1 0.6zm19 22l0.4 1.1q-7.7 0.7-11.6 0.7-2.5 0-3.1-0.1-0.5-0.2-0.7-1-0.3-1.2-0.9-2.1l-1.2-0.5v-0.7l1.6 0.4-0.1-0.4q0-0.2 0.2-0.5 0.2-0.4 0.3-0.6l-1.2-0.7q0-0.1 0-0.3 0-0.2 0.2-0.3 0.3-0.2 0.3-0.3l-0.1-0.2q-0.3 0.3-1.2 0.8-0.7 0.4-1.1 0.7-0.5-1.1-1.6-3.1-1.1-2-1.5-3.1 0.6 0.1 1.9 0.4l0.8 1.1q0.1 0 0.3 0 0 0 0.4-0.1 0.2 0 0.5 0.1v-1.5h-0.3q-0.3-0.1-0.7 0.2-0.4 0.2-0.5 0.2-0.3 0-1-0.6-0.7-0.6-1.1-0.6h-0.3v0.3q0 0.3-0.2 0.3-0.5 0-0.5-1.6 0-0.1-0.1-0.8l-0.1 0.1q-0.6 0-1.1-0.8 0.7-0.1 1.2-0.3 0 0-0.2 0-0.6 0-0.6-0.7 0.1-0.4 0.8-0.4v-0.4h-0.5q-0.5 0-1.1 0.4-0.6 0.3-0.7 0.3l-1.2-1.4q-0.2 0.1-0.8 0.2-0.5 0-0.7 0.1-0.5 0.4-0.6 1.4 0 1.2-0.2 1.5-0.7 0.6-1.5 1.5 0 0.6-0.5 1.8-0.3 0.5-0.7 0.5-0.3 0-0.4 1.5v0.2h-0.4q-0.2 0.6-0.8 1.8-0.4-0.1-1.1-0.3-0.8-0.2-1.2-0.4v-1.1h-1.1l-0.4 1.1q-0.2 0.1-0.5 0-0.4-0.2-0.5-0.2-0.3 0-0.6 0.2 0.9 0.3 2 0.4l-0.4 1.1q0.7 0 1.7-0.3 1.5-0.4 1.7-0.5-1.5 2.7-4.2 8-1.6 0-4.8 0.1-3.3 0.1-4.9 0.1-1.7 0-5-0.2 0-0.6 0.3-1.8 0.3-0.3 1-0.5 0.8-0.3 1-0.6 0.2-0.3 0.3-1.2 0.1-1 0.4-1.3l1.2-0.4q0-0.5 0.4-1.4 0.7 0.4 1 0.4 0.1 0 0.2-0.1l-0.8-1.1q1.1-0.9 2.3-2.9v-0.7-0.4h0.8q-0.1 0.2-0.1-1.1l0.1-0.4 0.8-0.3q0.1-0.3 0.1-0.9 0.1-0.7 0.3-0.9 0.6 0.5 1.3 1.2 0 0-0.2-0.1v0.7q0.3 0.1 0.6 0.1 0.5 0 2.7-0.5 2.3-0.5 2.5-0.7 0.1-0.5 0.8-1.1-1-0.3-1.4-0.3h-0.1l-0.4 0.7q-1.4 0.4-1.9 0.4-0.6 0-2.4-0.4 0.5-0.3 0.5-1.2 0-0.9-0.3-0.9-0.2 0-0.2 0.3v-0.8q0.8-1 1.1-1.8h0.8q0.7-1.1 2-3.3v-1.1q1.2 0.1 1.7-1.1 0.6-1.4 2.5-1.8-0.2-0.1-0.6 0-0.6 0.1-0.6 0.1l-0.3-0.1-9.7-13.1v-0.4q0-0.3 0.2-1 0.2-0.8 0.2-1.1 1.4 0.6 3.6 1.4-0.9-0.4-2.4-1.1v-0.7q-1.2-1.1-1.2-1.2 0-0.2 1.3-0.1 1.9 0.2 1.8 0.2v-0.7q-1.7-0.1-3.5 0v-0.7h0.2q0.6 0 1-0.4-2.7-0.4-3.2-1.2-0.3-0.6-0.3-3.5 0.3 0 1.6 0.2 0.9 0.2 1.5 0.2 0.6 0 1.6-0.2 1.1-0.3 1.6-0.3 1.8 0 1.8 1.5 0.2 0.1 2 0.4 0 0.1 0.2 0.8 0.3 0.7 0.3 0.9-0.4 0.5-1.3 1.2 1.6-0.3 1.7-0.3 0.3 0 1.6 1.6 1.3 1.6 1.3 2 0 0.1-1.2 0.7-1.3 0.6-1.5 0.7-0.1 0.1-0.3 0.6-0.2 0.5-0.4 0.5-0.2 0-0.5-0.2-0.2-0.3-0.4-0.3-0.5 0-0.5 0.5 0 0 0.3 0.1 0.2 0 0.3-0.1v1.5h-1.6q0.6 0.7 0.6 0.9 0 0.1-0.2 0.2 0.3 0.1 1.1 0.7 0.6 0.4 1.1 0.4 0.4 0 0.5 0l-0.4-2.2q0.6 0 0.8-0.3-0.5-0.1-0.8-0.1v-0.7q0.8-0.1 2.3-0.4l0.4-1.1q-0.3 0.2-0.6 0.2 1-1 2.3-1 0.1 0 0 0 0 0.1-0.1 0.1 0.7 1.2 1.6 2.5h0.7q0 1.6 0.9 2.5 1.1 0.8 2.2 1.6 0.7-1 1.5-2 0.8-1.1 0.8-2.1 0-0.2 0-0.3 0.4 0 0.9-0.3 0.3-0.2 0.7-0.5v1.1h1.1v-1.1l-1.1-1.4v-0.1q0-0.2 0.2-0.3 0.3-0.2 0.3-0.3 0-0.2-0.1-0.4 1-0.1 3.1-0.3 0-0.4 0.1-0.8 0.1-0.4 0.6-0.4 0.2 0 0.4 0.3 0.3 0.2 0.5 0.2l0.3-0.1q-0.5-0.3-1-0.6-1-0.5-1-0.6l2.8-0.6v-1.1h-0.3q-0.1 0-1.3 0.4-0.5-1.4-0.5-2.1l0.2 0.2h0.3v-1.1q0.6 0 1.6-0.3-0.3-0.3-0.3-0.6l0.3-0.9h15.1q-0.2 0.4-0.4 0.4-0.6-0.2-0.4-0.2-0.2 0-0.3 0.2v1.4l-4.3 5.2q-0.8 0.2-2.3 0h0.1q0.1 0.1-0.1 0.2 0.1 0.1 0.3 0.1h1.2q-1.3 2.3-3.6 5.7-3.2 4.7-3.8 5.6-0.5-0.9-0.7-1.4 0.3-0.1 0.3-0.2 0-0.3-1.1-0.6-0.3 0.6-0.6 1.2-0.5 0.7-1 0.7-0.5 0-0.3-0.8-0.2 0.2-0.6 0.3-0.5 0-0.6 0.1v1.1l-1.2 0.7q-0.1-0.3 0-1.1h-0.8v-0.3q0-0.8 0.5-1.5v-0.7h1.1l-0.4 1.1h0.2q1.7 0.1 3.7-3.3h0.8l-0.4-0.7-1.6 0.3q0.1 0 0.1-0.1 0-0.1-0.1-0.1-0.3 0-0.7 0.2-0.2 0.2-0.3 0.9 0 0.3-0.5 0.3-0.2 0-0.8-0.1 0.3 0.1 0.3 0.2 0 0.1-1.4 0.5 0.2-1.5 1.1-2.2 1-0.8 1.2-1.4-1 0.5-2 1-0.4 0.2-2.3 0.5l-0.4 0.7q0.2-0.1 0.4-0.1 0.3 0 0.3 0.2l-0.3 0.6h0.1q0.3 0-0.3 0.5-0.7 0.9-1.4 1.3h0.8q1.1 1.6 1.1 2 0 0.3-1.2 0.6-0.7 0.2-1.4 0.3v0.7l0.3 0.2q0.2 0 0.4-0.3 0.3-0.3 0.5-0.3l0.3 0.1 0.4 1.1q2.1-0.8 2.7-0.8 0.7 0 1.8 0.4 1.2 0.3 1.7 0.4v0.7q-0.4 0.6-1.1 1.9l-0.8-0.4v-1.1l-1.2 0.4v0.7q-0.7 0-0.7-0.2 0.1-0.2 0.3-0.2-0.6 0.2-1.9 0.8v1l-0.4 0.1q-0.1 0 0-0.1 0.1-0.2 0.1-0.2 0-0.1-0.9-0.1v-0.7l-0.3-0.1q-0.2 0-0.5 0.3-0.3 0.2-0.7 0.1l-0.4 0.7h-0.2q-0.2 0-0.2-0.5v-0.2q-0.2 0-0.9 0.2-0.6 0.2-1 0.2l0.7 1.1h0.4q0.2 0 0.4-0.2 0.3-0.2 0.5-0.2h0.3l-0.4 1.5h1.2q-0.6 0.3-1.2 1.4l0.1-0.2q0-0.5-1.3-0.5-0.1 0.2 0 0.4 0.1 0.5 0.1 0.5 0 0.6-1.3 1.2-0.9 0.4-1.8 0.8 0.5 0.2 1.5 0.4l-0.4 0.7h0.2q1 0 1-0.6 0-0.3-0.4-0.1l0.4-0.8 0.7 0.4q0 0-0.1-0.1 0-0.1 0.8-0.3 0.4-0.2 0.9-0.4 0-0.3 0 0.9 0 0.8-0.4 0.6v1.1q0.5 0.1 1.5 0.4-0.2 0-0.2 0.2 0 0.3 1 0.9v-1.5h-1.1l0.3-0.7q-0.1 0 1.3 0 0.4 0 0.4 0.3 0 0.5-0.5 1.5 0.7 0 1.9 0.4l0.1-0.6q0.1-0.4 0.4-0.5v-0.7q1-0.5 2.3-2.6 0.1 0 0.5 0.2 0.3 0.2 0.6 0.2l0.4-0.1q-0.2 0-0.2-0.3 0-0.3 0.6-1.1 0.1 0.9 0.8 2.6 0.3 0.4 0.9 0.6 0.6 0.1 0.8 0.4 0.2 0.5 0.2 2.2 0 0.5 0.4 1.1 0.1 0.1 0.4 0.1 0.1 0 0.3-0.2 0.2-0.3 0.3-0.3 0 0 0.1 0.1v1.4q-0.6-0.5-0.9-0.5-0.2 0-0.2 0.4 0-0.2 0.4 1.6-0.3 0.1-0.6 0.3 0 0-0.2 0.7-0.4-0.4-0.8-0.4-0.2 0-0.4 0.1 0.6 1.2 0.8 2.2h1.2q0.2-1.1 0.5-2.3 0.1-0.3 1.4-1.7 1.4 1.8 3.9 5.8h0.8q0.3 0.7 0.3 2.6 3 1.1 3 2.1-0.2 0.6-0.6 0.7 1.1 0.6 3.1 1.9zm-46.9-48.1l-0.4 0.7q0.3 1.2 0.3 2.3 0 1.1-0.3 1.8l-0.8 0.3q-0.7-1.1-1.6-2.2-0.5-0.7-2.2-1.8l-0.4-1.1q0.7 0 2-0.1 1.4-0.2 2.1-0.2 0.8 0 1.3 0.3zm3.4 7.9q-0.3 0-0.7-0.2 0 0 0 0.5 0 0.2-0.1 0.2h-0.3v-1.1q-0.4-0.2-0.7-0.2-0.2 0.2-0.7 0.2h-0.1q0-0.1 0-0.4-0.1-0.3-0.1-0.4 0-0.3 0.3-0.3 0.2 0 1.3 0.7 1 0.7 1.1 1zm22.5 21q0 0.9-1.1 1-0.4-0.5-1.2-1.5 0.3-0.5 0.6-0.5 0.1 0 0.2 0.1 0.2-0.1 0.1-0.2-0.2-0.2-0.2-0.2h0.1q0.1 0 0.2 0 0.1 0.1 0.2 0.1v0.7h0.3q0.8 0 0.8 0.5zm8.6-24.8q0-0.8-1.2-0.8v1.5q1.2 0 1.2-0.7zm3.9 3.2q-0.5-0.3 0-1.4-0.3-0.1-2-0.4-1.6-0.4-1.9-0.4-0.5 0-1.4 0.3-0.9 0.1-1.3 0.1v0.7q1.3-0.1 1.9-0.1 2 0 4.7 1.2zm-29.1-3.6v-1.1q-0.1-0.1-0.5-0.6-0.4-0.5-0.7-0.5h-0.4v0.7q-0.2-0.1-0.4-0.1-0.2 0-0.2 0.4 0 0.2 0.2 1.2 2 0 2 0zm16.9 16.6q-0.3-0.3-1-0.3l-0.4 0.8q1.4-0.2 1.4-0.5zm-6-3.5h0.7q-0.1-0.1-0.1-0.5 0-0.2-0.6-0.2zm-10.9-12.2q0-0.6 0-0.6-1.1 0-2.1-0.1-1-0.1-2.2-0.6 0.1 0.1 1.3 1.6 0.8 1 1.7 1l0.6-0.1q-0.2-0.2-0.2-0.6 0-0.6 0.5-0.8v0.4h0.2q0.2 0 0.2-0.2zm1.7 2.7h0.3v-1.1q0-0.4-0.8-0.4-2.5 0-2.5 0.6 0.3 0.3 0.3 0.6 0 0.3 0.6 0.3v1.1h0.8l0.4-1.1q-0.1 0 0.9 0zm11.5 12.7h0.7q-0.1 0-0.1-0.5 0-0.2-0.6-0.2zm-5.7-6.9q0-0.5-0.5-0.5l-0.4 0.1v1.1q-0.4-0.1-0.7-0.1-0.3 0-0.3 0.1 0 0.5 1.4 0.8 0.5-0.9 0.5-1.5zm4.5 6.2l0.8-0.8h-1.1q-0.9 0-0.9 0.2 0 0.3 1.2 0.6zm-6.3-6.3q0-0.1-0.3-0.3-0.3-0.2-0.3-0.7l-0.1-0.4h-1.5q0 0 1.1 1.9 1.1-0.2 1.1-0.5zm-12.2-11.4l0.3-0.5q-1 0.1-1.5 0l0.4 1.4q0.9 0 0.9-0.3-0.1-0.3-0.1-0.6zm11.5 14h0.8q-0.1 0-0.1-0.5 0-0.2-0.7-0.2zm6.2 5.9h0.8q-0.1-0.1-0.1-0.6 0-0.2-0.7-0.2zm-12.4-10.6l1.2 0.4q-0.2-0.1-0.2-0.8 0-0.3-0.4-0.3-0.9 0-1.3 0.5-0.6 0.9-0.8 1l-1.2-0.4v0.1q0 0.7 1.1 0.7 0.8 0 1.6-1.2zm34.1 33.6q-0.2-0.4-1-0.4-0.4 0-0.4 0.2 0 0.3 1 0.9 0.3-0.2 0.4-0.7zm-23.8-21.9q0-0.3-1.8-0.7l0.9 0.7 0.6 0.1q0.3 0 0.3-0.1zm11.5 11.1q-0.3-0.4-1.2-0.5l0.4 0.7h0.4q0.4 0 0.4-0.2zm-21.8-20.4q0-0.2-0.4-0.2-0.5 0-0.5 0.2 0 0.2 0.5 0.6 0.4-0.4 0.4-0.6zm26 26.8h0.7q-0.1-0.1-0.1-0.5 0-0.2-0.6-0.2zm6.1 2.2q0-0.9-3.4-1.1-0.4 1.9-0.4 2.3 0 0.4 0.6 0.8 0.5 0.2 1 0.5 0.2 0.9 0.4 1.4h1.1q-0.4 0-0.4-0.5 0-0.2 0.2-0.7 0.2-0.5 0.2-0.8l-0.4-0.5q1.1-0.8 1.1-1.4zm-9-5.2q-0.1-0.3-0.7-0.3-0.5 0-0.5 0.1 0 0.3 1 0.6 0.2-0.2 0.2-0.4zm1.4 2.8l-0.4-0.2q0.1 0.1 0.1 0.3 0 0.1-0.3 0.1h-0.2v-1.5q-0.2-0.2-0.9-0.4-0.9-0.2-1.1-0.3v1.8h0.4q0.2 0 0.5-0.3 0.2-0.4 0.3-0.4 0.3 0.6 0.8 1.8h0.2q0.3 0 0.3-0.2-0.1-0.1-0.1-0.2 0.4-0.2 0.4-0.5zm-0.1 2.3h0.8q-0.1 0-0.1-0.5 0-0.2-0.7-0.2zm3.9 2.6q-0.4-0.4-1.2-0.4v0.7q1.2 0 1.2-0.3zm-15.7-13.5q-0.5-0.1-1.7-0.3l-0.4 0.7 1.6-0.3q0.3 0 0.5-0.1zm-5.6-2.9l0.8-1.5q0.1 0.1-0.9 0.1-0.2 0-0.3-0.1l-0.4-1.1h-0.7q-1.4 1.3-1.4 1.6 0 0.2 2.9 1zm-0.3 0.8q-0.4-0.1-1.2-0.1h-0.4v0.4q0 0 0.8-0.1 0.8-0.1 0.8-0.2zm1 2.5q0-0.6-1.1-1.1-0.2 0.5-0.2 0.8 0 0.6 0.7 0.6 0.6 0 0.6-0.3zm0.5 2.9h0.7q-0.1-0.1-0.1-0.5 0-0.3-0.6-0.3zm-2.4 3.1q-0.1-0.2-0.5-0.2-0.4 0-0.4 0.2 0 0.3 0.6 0.6 0.2-0.2 0.3-0.6zm-1.2-0.5q-0.3-0.4-1.1-0.4v0.7q1.1 0 1.1-0.3zm2.3 1.9q-0.2-0.2-0.6-0.2-1.2 0-1.2 1.3 0.2 0.3 0.5 0.3 0.4 0 0.8-0.5 0.5-0.5 0.5-0.9zm-5.4 4.4q-0.1-0.2-0.2-0.2-0.2 0-0.5 0.4-0.3 0.5-0.3 0.7 0.1 0.1 0.4 0.1h0.3q0-0.1 0.1-0.4 0.2-0.4 0.2-0.6zm-0.3 1.3h-1.2q-0.1 0.4-0.4 1.2-0.2 0.7-0.4 1.1h-0.3q-0.1 0.4-0.1 0.6 0 0.5 0.3 0.5 1.3 0 1.7-1.2 0.2-1.1 0.4-2.2zm-6.8 2.2q0-0.3-1.7-0.7l0.8 0.8h0.5q0.4 0 0.4-0.1zm92.4-32.4l-0.9 0.5q-1.1-0.8-1.1-1 0-0.1 0.2-0.1 1.8 0 1.8 0.6zm0 1.5q0 0.1-0.3 0.1h-0.1q-0.9-0.5-0.9-0.7 0-0.1 0.3-0.1 1 0 1 0.7zm1.1 17.6q0 5-2.7 9.5-0.7-0.5-1.1-0.5-0.3 0-0.5 0.1 0.6 1 0.6 1.2-0.1 0.1-0.3 0v0.7q-0.8 0-2.3 0.3-0.3 0.1-0.9 1.2-0.5 0.8-1.3 0.8-0.6 0-0.6-0.8h0.5q0.4 0 0.4-0.1 0-0.6-1.7-0.6l-0.4 1.5q0.2-0.2 0.5-0.2 0.2 0 0.2 0.1 0 0.4-1.9 0.8-1.5 0.2-3.2 0.8v0.3h-0.2q-0.3 0.1-0.8-0.1-0.5-0.3-0.8-0.3l-0.2 0.1v0.7l0.4-0.1h0.1q0 0-0.9 0.4-0.3-0.2-0.2-0.4 0.1-0.4 0.1-0.4 0-0.2-0.7-0.2l-0.4 0.7q0.2 0 0.2-0.1 0-0.3-1-0.3l0.8 0.7q-1.3 0-2.6 0-1.9 0-2.6-0.3 0 0 0-0.1 0 0 0.1 0 0.3-0.1 0.6-0.1 0.5-0.1 0.5-0.2 0-0.2-0.5-0.5-0.4-0.3-0.7-0.3v-0.3h0.8q1.7 0 4 0.3l0.4-0.7q-0.6-0.1-1.2-0.3 1.9 0 5.6 0v-1.2q-0.2-0.1-0.4-0.1 0 0 0.1 0.4 0 0.1-0.2 0.1h-0.3l-1.2-1.2h-0.4q-0.6 0-1.6 0.5-1.1 0.3-1.6 0.3 0.1 0-2.3-0.5-0.8-0.2-0.9-0.3-0.4 0-1.4 0.1-0.9 0.1-1.3 0.1-0.7 0-1.3-0.2l-0.7-1-0.4-0.1q-1.5 0-1.6 0.4 0.1 0 0.8 0v0.7q-0.4 0.1-0.6 0.1 0.1 0-1.9-0.4v0.8q-0.5 0-0.7-0.4-0.3-0.4-0.9-0.4 0 0.2-0.7 0.8l0.4 1-1.3 0.5q-0.1-0.1 0-0.5 0.2-0.5 0.2-0.6 0-1.2-9.7-0.9 0.1-1 0.4-3.3-0.4 0.1-0.8 0.1-0.3-0.1-1.2-0.1 0.5 1.9 0.5 1.7-0.2 0.6-0.9 0.9 0.2-1.9 0.2-3.9 0-2.8-0.3-8.3-0.3-5.6-0.3-8.4 0.1 0 0.8-0.1 0.5-0.1 0.5-0.3-0.1-0.1-0.4-0.2l-0.9-0.1v-4.2q0.4-0.1 0.7 0 0.4 0.1 0.5 0.1 0.2 0 0.7-0.4 0.6-0.5 0.6-0.7 0-0.4-0.9-0.8 0.4-0.3 1.2-0.4v-1.1q0.7-0.3 1.7-0.3 0.8 0 1.7 0l1-0.1-0.8-0.8q-0.4-0.1-1.2-0.1-0.8 0-2.6 0.3-1.6 0.2-2.5 0.2h-0.1v-1.5h1.2q-0.1-0.3-0.9-0.3l-0.3-0.1v-12q-0.1 0.1 1.3 0.1l0.3-0.1 0.4-0.7 0.8-0.1-2.4 0.1q-0.4-0.5-0.4-0.8l0.4-0.3q1.4-0.2 2.8-0.2 1.9 0 5.6 0.3 3.7 0.2 5.6 0.2 2.6 0 7.8-0.1 5.3-0.1 7.9-0.1 1.3 0 2.2 0.2l0.4 0.8q0.4 0.1 1.2 0.2 0.8 0 1.2 0.2v1.1q0.4 0.2 1.1 0.1 0.9-0.2 1.1-0.2 0.9 0 1 1.2 0.5 0.2 1.6 0.8-0.3 0.2-0.3 0.9-0.1 0.4-0.2 0.9 0 0-0.7 0.1-0.7 0-0.7 0.1 0.1 0.3 0.7 0.6l0.4 1.1 1.2-0.4q0.1-0.1 0.4-1.1h0.8q0.6 0.6 1.6 1.9v1.1h0.7q0.2 0.5 0.1 1.1l-0.1 2.3h-0.7q-0.5-1.2-1.2-3.8-0.3 0-2.5-0.7v1.5l1.1-0.1 0.5 0.1q0.2 0.1 0.2 0.5 0 0.4 0.3 0.6l-0.5 1.5q-2.6-0.4-3.2-0.4-0.2-0.1-0.2 0.1 0 0.2 1.7 0.6 1.1 0.3 2.2 0.5l0.4 0.7q-0.4-0.2-0.4-0.2-0.5 0-0.5 0.9v0.1q0.7 0.1 1.6 0.7v0.8 0.3l1.6 1.2q-0.4 0.1-1.6 0 0 1.1-0.4 3.3 0.3-0.1 0.6 0 0.4 0.1 0.5 0.1 0.3 0 0.8-0.6 0.3-0.5 0.6-1 0.1 1.9 0.4 5.7-0.5-0.3-2-0.8l-0.5 1.5h0.5v0.8q1-0.2 1-0.3-0.1-0.1-0.3-0.2h0.9l0.4-1q0 1.4 0.6 4.6 0.5 2.9 0.5 4.6zm-25.2 13.9q-0.2 0.4-0.6 0.4-0.4-0.9-0.4-0.9 0-0.2 0.2-0.2 0.8 0 0.8 0.7zm0.1 2.3q-0.3 0-0.4 0.1-0.1 0.1 0 0.2 0 0.2 0 0.3v0.2q-2.5-0.2-7.5-1.2l-0.8 1.2q-0.7-0.3-0.7-0.6 0.1-0.1 0.2-0.2-0.2-0.1-0.7-0.4 0.3-0.6 1.2-1.8 0.3 0 2.2 0.4 1.3 0.4 2.1 0.4 0.9 0 1.6-0.5 1.4 0.4 2.8 1.9zm-17.2-3.3q-0.3 0.7-1 0.7-1.6 0-1.6-0.9 0.4-0.6 1.4-0.6 1.2 0 1.2 0.8zm3.7 4.1q-0.6 0-1.7 0.1-1.1 0-1.5 0-2.1 0-2.7-0.7-0.2-0.3-0.5-2.4h0.4q1.3 0 5.2 0.3 0 0 0.8 2.7zm26.5-47.3q-0.7-0.3-1.8-0.3l0.4 0.7q1.4 0 1.4-0.4zm-3.2-0.1l-0.6-0.2v-1.1h-0.8l-0.8 0.7q0.8 0.3 2.2 0.6zm8.5 10.7h0.9q-0.2-0.1-0.2-0.6 0-0.2-0.7-0.2zm-11.5-10.3q0-0.8-1.2-1.3l0.4 1.5q0.5 0.1 0.6 0.1 0.2 0 0.2-0.3zm10.4 10.7q0-0.3-0.5-0.4v-0.8h-1.1v0.8q0.2 0 0.7 0.2 0.5 0.2 0.8 0.2 0.1 0 0.1 0zm-6.9-7.3q0-0.7-1.5-2.1h-2.4q0.2 0.4 0.8 2.2h0.3q0.2 0 0.6 0.2 0.4 0.3 0.6 0.3l0.5-0.1v-0.7q0.5 0.3 0.9 0.3 0.2 0 0.2-0.1zm-3.9-0.6l-0.8-1.1h-4.7l0.7 1.1h0.2q0.6 0 0.6-0.4 0.5-0.1 1.1-0.1 0.6 0 1.5 0.2 1 0.2 1.4 0.3zm14.7 15h0.9q-0.9-0.3-2.1-0.4v-0.8q-1-0.2-2.7-0.4-2-0.1-2.8-0.3-0.1-0.2-0.1-0.7 0-0.1-0.3-0.4l-0.4 0.7 1.6 1.9q0.2 0.1 0.6 0 0.5-0.1 0.6-0.1 0.2 0 0.3 0.1 0 1 0.8 1.6 0.8 0.5 1.7 1 0-0.9 0.2-1 0.2-0.1 1-0.1 0.4 0 0.4 0zm-7-3.9q0-0.3-0.4-0.8-0.3-0.5-0.6-0.5h-0.4l0.4 1.5q0.5 0.2 0.6 0.2 0.4 0 0.4-0.4zm-15.5-14.5q0-0.4-3.1-2.2 0.2 0 0.2 0.3 0 0.3-0.5 1.2 0 0 1.9 0v0.8q0.7 0.1 1 0.1 0.5 0 0.5-0.2zm2.2 3.8q-1.4-0.3-1.4-0.8 0-0.2 0.2-1.1l-0.9 0.1q-0.2 0-0.4-0.1v-0.7q-0.7-0.1-1.2-0.4 0.4 0.9 1.2 2.6h1.3v0.8h0.2q0.4 0 1-0.4zm23 23.1q-0.5-0.5-1.1-0.6v0.7l0.5 0.1q0.6 0 0.6-0.2zm-30.6-29.1q-0.8-0.3-2.8-1.1v0.2q0 1.1 1.3 1.1 0.8 0 1.5-0.2zm0.7 1.5q-0.3-0.4-1.1-0.4v0.8q1.1 0 1.1-0.4zm3.2 5.3q-0.7-0.9-1.6-1.7-0.9-1-1.9-1-1.1 0-1.1 1 0.2 0.6 1.1 0.5v0.8q0.2 0.1 0.3 0.1 0.3 0 0.7-0.2 0.4-0.3 0.6-0.3 1.3 0.6 1.9 0.8zm-5.3-4.9q0-0.4-1.8-0.4-0.6 0.5-0.7 0.8 0.1 0 0.2 0 0.9 0 0.9-0.3h-0.7q0.3-0.1 1.8-0.1 0.2 0 0.3 0zm1 1.1q-0.7-0.1-2-0.4 0.9 1.2 1.7 1.2 0.1 0 0.3-0.8zm31.1 30q-0.9-0.8-1.2-0.8l-0.4 0.8 0.7 0.3q-0.2 0-0.2-0.1 0-0.2 1.1-0.2zm-1.2-1.5q-1-0.4-2.8-1.2l1.5 1.9q0.4 0.1 0.5 0.1 0.3 0 0.4-0.4 0.2-0.4 0.4-0.4zm-6.8-5.1q0-0.1-0.2-0.1-0.2-0.1-0.2-0.1-2.4-0.3-3.6-0.4l0.1 0.1q0 0.1-0.9 0.7l0.4 0.7q0 0 2.8 0l-0.4-0.7q0.6 0 1.6-0.1 0.4-0.1 0.4-0.1zm-28.6-23.5q-0.3-0.5-1.3-0.6l0.4 1.1h0.3q0.6 0 0.6-0.5zm34.4 33.8q-0.1-0.4-0.7-0.4-0.6 0-0.6 0.2 0 0.1 1 0.6 0.3-0.3 0.3-0.4zm-36.7-33.5q0-0.4-1.8-1.7-1.2-0.7-2.4-1.5l0.4 1.9q0.2 0.1 0.6 0.1 0.8-0.1 0.7-0.1 0.3 0 0.9 0.7 0.6 0.7 1.5 0.7 0.1 0 0.1-0.1zm0.2 1.3h0.8q-0.1-0.1-0.1-0.5 0-0.2-0.7-0.2zm34.1 22.5h1.4q-1-0.9-3.2-2.3v-0.4q0.2 0.1 0.4-0.2 0.2-0.4 0.2-0.6-0.2-0.7-1-0.7v-1.1q-1 0.3-3.2 1.1 0-0.6-0.4-1.8v-1.2q0 0-2.4 0 0 0 0-1.8h-0.3q-0.2 0-0.1-0.2l0.4-1h0.3q0.3 0 0.5 0.2 0.3 0.2 0.5 0.2h0.3v-0.7q-0.2-0.1-2-0.4l-0.4-1.9q0.6-0.2 0.9-0.2 0.1 0-0.1 0.2h1.2q0.2 0.1 0.6 0.4 0.4 0.3 0.6 0.4l-0.4-1.2q-0.3-0.2-1.1-0.3-0.8-0.1-0.8-0.2 0.6-0.5 1.5-1.3h-0.9q-0.9 0.1-0.9-0.1 0.3-0.3 1-0.3l-0.1-1.3 0.1-0.6-1.6-0.4q-0.1 0.4-0.8 1.9 0.6 0.1 0.6 1 0 0.7-0.2 1.3-0.3-0.3-1-1.7-0.6-1.4-1-1.7-2.5-1.8-7.9-2-7.3-0.4-8.4-0.6 0.2 0.1 0.2 0.4l0.2 0.1 0.8 0.2q0 2.5 0.2 4.9 0 2.9 0.6 4.9 0 0-0.6 0-0.2 0-0.2 0.3h0.8v1.2l-0.8 0.3h0.8q0 0.4 0 1.2 0.1 0.7 0.1 1.2 0 0-0.1 1-0.9 0.5-0.9 0.7 0 0 0.1 0.1h0.8v16.5h1.2q5.3 0 7.6-0.8 0.8-0.6 2.7-1.5 0.6 0.1 0.8 0.1 0.2 0 0.4-0.1l2-2.2h0.8q0.4-0.6 0.5-1.8 0.1-1.1 0.3-1.6l0.8-0.4 0.1-0.5q0-0.8-0.3-2.3-0.2-1.5-0.2-2.2v-0.2l0.8-0.8q0.1-0.3 0.4-3.7 0 0.1 1.2 0.3v0.8l-0.1-0.1q-0.3 0-0.3 0.3 0 0.5 0.8 0.5-0.1 0-0.1-0.2 0-0.3 0.5-0.5 0.1 0.6 0.8 1.5 0.5 0.4 1.9 0.5 1.5 0 2.1 0.2l0.4 1.2q0.3 0.1 0.6 0zm0.1 9.5q-0.5-0.4-1.1-0.5v0.7h0.5q0.6 0 0.6-0.2zm-32.6-30.2q-0.2-0.1-0.8-1.1h-1.2q0.2 0.1 0.6 0.9 0.5 0.7 0.9 0.7 0.4 0 0.5-0.5zm0.4 3h0.8q-0.2 0-0.2-0.5 0-0.2-0.6-0.2zm4.4 1.9q0 0 0-2.3 0 0-0.6 0 0.1 0-0.2-0.3l-0.4-0.4 0.2 0.1q0.1-0.1 0.1-0.2 0-0.4-0.3-1-0.2-0.1-0.5-0.1l-0.7 0.1q0.1 0.3 0.3 1.2l-0.3 0.6q0 0 0.6 0 0.1 0 0.2 0.4-0.5 0.1-0.8 0.8-0.3 0.1-1 0.1-1 0-4.2-0.5 0.5 0.5 2 2.6 0.7-0.3 2-0.7l-0.4-0.8h0.6q0.9 0 1.8 0.7 1 0.8 1.2 0.8 0.2 0 0.2-0.2 0-0.1 0-0.3-0.1-0.2-0.1-0.3 0-0.2 0.3-0.3zm-7-2.7q-0.2-0.3-0.7-0.3-0.6 0-0.6 0.1 0 0.4 1.1 0.6 0.2-0.2 0.2-0.4zm29 27.8q0-0.4-1.3-0.4l1.2 0.8q0.1-0.1 0.1-0.4zm-30.3-27.9q-0.4-0.5-1.3-0.6l0.4 0.8h0.4q0.5 0 0.5-0.2zm35 33.9l0.1-0.3q0-0.5-1-0.5-0.5 0-0.6 0.1 0 0.3 1.5 0.7zm-25.6-23q0-0.2-1.9-1.4l0.8 1.9q1.1 0 1.1-0.5zm-1.8-2.1q0-0.4-0.9-0.9-0.7-0.4-1.2-0.4-0.3 0-0.8 0.1-0.5 0.1-0.8 0.1 0.7 0.4 1.4 0.8 0.7 0.4 1.9 0.4 0.4 0 0.4-0.1zm-7.8-4.6q-0.2-0.3-0.7-0.7v0.8l0.4 0.1q0.3 0 0.3-0.2zm30.9 33.1q-0.3-0.7-1.3-0.8l0.4 1.2h0.3q0.6 0 0.6-0.4zm-25.9-19.8l0.2-0.1q-0.2-0.2-1.5-0.7v0.7zm18.8 17.2q0-0.4-0.7-0.4-0.6 0-0.6 0.2 0 0.1 1.1 0.6 0.2-0.2 0.2-0.4zm-0.9-1.2q-0.4-0.4-1.7-0.7v-0.7l-0.4-0.1q-1.3 0-1.2 0.1 0 0 0 0.6 0 0.1-0.4 0.1-0.5-0.7-1.2-0.7 0.1 0 0.1 0.1 0 0.2-0.5 1 0.4 0 1.1 0.2 0.8 0.2 1.2 0.2h0.5q0.2-0.7 0.8-0.8 1.5 0.7 1.7 0.7zm-20.4-15.8q-0.1-0.3-0.5-0.3-0.4 0-1 0.6-0.5 0.4-0.5 0.8 0.2 0.2 0.5 0.2 0.5 0 1-0.4 0.5-0.4 0.5-0.9zm-2.5 1.6q-0.2-0.4-0.7-0.4l-0.4 0.8q1.1-0.2 1.1-0.4zm8.8 9q-0.3-0.4-0.8-0.4h-0.4v0.4q0 0.1-0.2 0.1-0.1 0-0.1 0.1h0.1q0.7 0 1.4-0.2zm-1.5 1.5l-0.4-1.1h-1.2l0.3 1.5q-0.7 0-0.7 0.2 0.6 0.3 1.2 0.5 0 0 0.2-0.7 0.1-0.2 0.6-0.4zm-0.8 5.6q-0.2-0.1-0.2-0.5 0-0.2-0.3-0.2-0.8 0-0.8 0.2 0.5 0.2 1.3 0.5zm-3.6-2.2h0.8q-0.2-0.1-0.2-0.6 0-0.2-0.6-0.2zm23-36.1l-0.3 0.5q-0.9-0.2-0.9-0.5 0.2-0.3 0.9-0.3 0.3 0 0.3 0.3zm2.9 15.5l0.2 0.2q-0.2 0.2-0.6 0.2l0.4 0.7h-0.8q-0.1 0.5-0.1-1.1 0-0.8 0.5-0.7zm63.8 27.8q0.6-0.1-3.6-0.1-0.9 0-2.6 0.4-1.8 0.4-2.7 0.4-1.5 0-4-0.5-2.9-0.6-4-0.7-0.5-1.5-0.8-2.5-0.7-1.9-1.1-2.2-0.5-0.1-1.2-0.4-0.3-0.4-0.7-2.5-0.3-1.5-1.7-1.6l-0.3-1.5h0.5q1.8 0 2.6-0.4 0.9-0.4 1.5-1.8-0.4 0.2-1.1 0-0.6 0.2-0.4 1.1 0.2 0-2 0-0.5 0-0.9 0.5-0.5 0.5-0.6 0.6-2-4.5-3.6-5.9 0.3-0.1 0.8-1h1.3 0.6v-0.8l-0.6 0.2q0-0.2 0.6-0.6l-0.3-0.7q1-0.8 1.6-1.1v-0.4q0.1-0.1 0.5 0 0.3 0.1 0.4 0.1l0.2-0.1v-0.7q-0.7 0-2 0.3-0.2 0.2-0.2 0.6-0.1 0.4-0.2 0.6-0.2 0.4-1.1 1-0.6 0.4-1.2 0.8-1-0.5-2.5-0.7-2.2-0.3-2.6-0.4-0.7-0.6-0.7-0.8 0 0 0.1 0l0.2 0.1v-1.2q-1.6 0-1.6 0v1.2q0-0.1-0.1-0.1-0.2 0-0.2 0.8 1.1 2.2 1.1 2.6 0 0.5-0.4 0.8-0.4 0.2-0.4 0.6 0 0.7 0.4 2.1 0.4 1.4 0.4 2.2 0 0.6-0.6 1.9-0.5 1.3-0.5 1.8 0 0.4 0.1 1.1 0.2 0.6 0.2 1.1 0 0.5-0.5 1.7-0.6 1.5-0.7 1.8-0.3-0.2-1.1-0.3v-1.2q-0.6-0.2-1.4-0.1-1.4 0.1-1.4 0.1v-0.7h0.2q0.5 0 2.2 0.4l0.4-2.3q-0.7-0.1-2-0.7h-0.4q0.4-0.5 1.2-1.5-0.7 0.1-1.1 0.1-1.2 0-1.2-0.3 0-0.1 0.4-0.4 0.5-0.3 0.5-0.4-0.1-0.1-0.5-0.1-0.3 0-0.4 0.2 0 0.3 0 0.6-0.3 0.2-0.4 0.7 0.6 0.2 0.6 0.4-0.3 0.6-0.6 0.7 1.3 0 1.3 0.5 0 0.8-2.2 2.1 0 0.8 0.8 0.8 0.2 0 0.5-0.1v1.9l-0.4 0.7q0.6 0.1 1.5 0.4-1.1 0-2.4 0-0.3 0.8-0.8 1.5-0.4 0.5-1.8 0.5-0.5 0-1.6-0.1-1.1-0.1-1.6-0.1 0.3-6 0.3-12.9 0 0 2.8 0l0.4-2.6q0.6-0.1 1.6-0.3v-1.2q-1.2 0.6-3.5 1.5h0.3q0.6 0 0.6 0.3 0 0-0.2 0.7-0.2 0.4 0 0.5-0.5-0.1-1-0.3-0.4-0.2-1-0.1 0.2-1.8 0.2-5.5 0-0.8 0.1-3.4 0.1-2.6 0-4 0-2.1-0.3-3.3-0.8-3.8-0.8-4.5 0-3.2 0.8-8.4 0 0 0.7 0 0.1 0 0.2-0.4l-0.6-0.2v0.1q0 0.2-0.6 0.5-0.6-4.6-0.6-5.1 0-1.1 0.2-2l1.1-1.1q3.9 0 11.7 0.2 7.8 0.2 11.7 0.2 0.9 0 2.6-0.2 1.9-0.2 2.7-0.2 1 0 2.7 0.6 1.7 0.5 2.8 0.5 1.4 0 4.5 3.3 3.1 3.3 3.4 4.9 0.1 0.4 0 1-0.1 0.7-0.1 1 0 0.2 0.1 0.6h0.8q0.4 3 0.4 2.6 0 0.7-0.7 1.7-0.8 1.2-0.9 1.6-0.2 0.7-0.3 2.8 0 1.7-0.5 2.7-0.1 0.3-1.5 1.6-1.4 1.2-1.6 1.3-0.4 0.2-1.2 0-0.3 0.3 0 1.2-0.7 0-2 0.3-0.7 0.3-1.7 1.1-1.3 0.9-1.8 1.2 0.3 0.4 0.4 1.1 0.4 0.1 0.8 0.2 0.4 0 0.4 0.6 0 0.2-0.2 0.4-0.2 0.3-0.2 0.5v0.1h1.2v1.1l-0.9 1.1q1.2-0.3 2.4-0.7 1.8 3.5 5 8.3 2.8 4 5.6 8zm-36.8-5.5l-0.9 0.6q0 0 0-0.6 0-0.1 0.4-0.1 0.5 0 0.5 0.1zm2.7 4v1.5q-0.7 0.1-0.7 0.1-0.4 0-0.4-0.4 0-0.9 1.1-1.2zm-1.9-1.1q0 0.3-0.5 0.7-0.6 0.4-0.9 0.4-0.4 0-0.4-0.5l0.5-0.6q0.5-0.2 1-0.2 0.3 0 0.3 0.2zm-2.8 2.2q0 0.1-1.3 0.7 0.1-0.1 0.4-0.5 0.1-0.3 0.6-0.3 0.3 0 0.3 0.1zm31.3-41.4q-0.1-0.1-0.1-0.6 0-0.1-0.3-0.1-1 0-1 0.2 0.6 0.4 1.4 0.5zm-4.6-2.2h0.7q-0.1-0.1-0.1-0.6 0-0.2-0.6-0.2zm-2.6-5.1q0-0.1-0.3-0.1l-0.3 0.1-1.2 1.4h-1.1q-0.5 0.2-0.5 0.3 2 0.1 2.4 0.1 1-1.3 1-1.8zm10 12.5l0.8-1.5q-2.7 0-2.7 0 0.1 0.5 0.4 1.5zm-6.9-6.9q0-0.2-0.3-0.2-0.2 0-0.3 0.1-0.2 0.4-0.2 0.9 0 0.3 0.3 0.3 0.1 0 0.3-0.1 0.2-0.6 0.2-1zm-9.5-5.7q-0.1-0.1-0.4-0.1 0 0-0.5 0.2-0.7 0.9-0.7 1.3 0 0.2 0.1 0.2 0.4 0 0.9-0.6 0.6-0.6 0.6-1zm-0.5 4.1h0.7q-0.1-0.1-0.1-0.5 0-0.2-0.6-0.2zm8.2 7.7h0.8q-0.1 0-0.1-0.5 0-0.2-0.7-0.2zm1.1 1.6q0-0.2-0.4-0.2-0.6 0-0.6 0.4 0 0.3 0.7 0.4 0.3-0.3 0.3-0.6zm-14.4-12.7q-0.2-0.1-0.2-0.5 0-0.2-0.2-0.2-0.9 0-0.9 0.2 0.4 0.2 1.3 0.5zm17 17.7q-0.4-0.2-1.7-0.3v0.4q1.3 0 1.7-0.1zm-15.8-14.4q-0.1 0-0.1-0.5 0-0.3-0.4-0.3 0 0-0.4 0.1l-0.3 0.7q-0.5 0.5-0.5 0.4 1.1-0.3 1.7-0.4zm17.1 19.8q-0.4-0.5-1-0.5v0.7l0.5 0.1q0.5 0 0.5-0.3zm-20.7-19.8q-0.7-0.8-0.4-1l-1.1-0.4v0.3q-0.2 0.5 0.3 0.8v0.3q-0.5 0-1.9-0.7-0.5 0.7-0.5 1.4 0 0.1-0.8 0.5-0.7 0.3-0.7 0.3v0.8q-0.1 0 1.6 0h0.4v-0.4q1-0.7 3.1-1.9zm13.1 9.7q0 0-0.1-3h-0.8q-0.4-0.9-0.8-1.8-0.4-0.7-1.6-0.7-0.2 0-0.3-0.1l0.3-1.1h-0.2q0.4 0-2.1 0.4l-0.8-0.8q1-0.1 1-0.2 0-0.1-0.2-0.1 0.5-0.1 1.6-0.4-0.5 0.2-0.6 0.2 0-0.2 1.6-1.3 1.7-1.2 1.7-1.5l-1.6-0.7-1.1 1.8q0.1 0-1.4 0-0.3 0-0.7 0.8-0.4 0.9-0.7 1.1-1.4 0.8-5.5 0.8-1.1 0-3.1 0-1.8-0.1-2.4-0.1 0.3 1.2 0.8 3.7h-0.4l-0.5 0.2q-0.2-0.2-0.7-0.2-0.6 0.8-0.6 1.5 0 0.7 1 0.7l1.6-1.5q-0.2 1-0.2 3.1 0 1.1 0.1 3.5 0.1 2.2 0.1 3.4 4 0 5.5-0.1 3.1-0.1 5.5-0.6l1.2-0.8h0.4q0.4 0 1.1 0.2 0.7 0.2 1 0.2h0.2l0.8-0.7-1.2 0.3v-0.1q0-0.2-0.2-0.3-0.2-0.2-0.2-0.5v-0.2l1.2-0.7q1.3-2.1 1.3-4.4zm-0.1 7.7v-0.2q0-0.6-1.1-0.6-1.3 0-1.3 0.2zm-2.4 0.4v0.7q0 0-1 0-0.4 0-0.4 0.6-0.1 0.5-0.2 0.9-0.4-1.7-0.7-1.7-0.2 0-0.2 0.9 0 0.7 0.1 0.7 0-0.2 0-1.4h0.8v-1.1q0-0.2 0-0.3 0.6 0.2 1.6 0.7zm-15.7-7.7q-0.1-0.1-0.3-0.5-0.1-0.3-0.5-0.3h-0.4l-0.8 0.8q0 0 2 0zm11.8 12.5h0.8q-0.2 0-0.2-0.5 0-0.2-0.6-0.2zm-12.7-16.9q-0.3-0.1-0.7-0.1v-0.7q0.5 0 0.5-0.2 0-0.3-0.5-0.6l-0.4-0.1q-0.4 0-1 0.3-0.6 0.2-0.9 0.2 0.2-0.5 0.2-0.7 0-0.5-1.2-0.5-0.7 0-1.9 0.4-1.1 0.3-1.7 0.3-1.1 0-1.1-0.4 0-0.4 0.5-1l-1.1-0.3-0.8 2.6q1.8 0.2 5.5 0.7 0.1-0.5 0.2-0.9 0-0.1 0.6-0.6 0 0 0 1.4 0 0.6-0.4 1.2h-0.4q-0.6 0.3-1.3 0.8-0.9 1-1.1 1 0 0.9 0.4 0.9 0.9 0 1.6-1.6 1.2-0.7 1.8-0.7 0.3 0 0.9 0.2 0.6 0.1 0.8 0.1-0.9-0.6-0.9-0.6 0.3 0 1.1 0.2 0.8 0.2 0.8 0.3-0.6 0-1.3-0.2v-0.4q-0.4 0.1-0.4-0.1 0-0.1 0.4-1 0.6 0.1 1.8 0.1zm29.3 34.2q0-0.3-0.6-0.3-0.6 0-0.6 0.1 0 0.2 1.1 0.6 0.1-0.3 0.1-0.4zm-31.1-27.6q-0.2-0.1-0.2-0.6 0-0.2-0.3-0.2-0.8 0-0.8 0.2 0.4 0.2 1.3 0.6zm33.6 32.3q-0.4-0.5-1.1-0.6v0.7l0.6 0.1q0.5 0 0.5-0.2zm-8.1-7.2l0.4 0.7q0 0 0-0.6 0-0.1-0.4-0.1zm-17.1-16.6q-0.1-0.2-0.2-0.2-0.2 0-0.4 0.1-0.6 1.1-0.6 1.5 0 0.1 0.2 0.1 0.4 0 0.7-0.5 0.3-0.6 0.3-1zm7.1 7.3q-0.2-0.2-1-0.3h0.8q-0.4-0.1-1-0.4-0.7-0.3-1-0.4-0.1 0.2-0.8 1.8 3-0.3 3-0.7zm-21-16.6h0.7q-0.1-0.1-0.1-0.5 0-0.2-0.6-0.2zm11.3 8.5v-0.1q-0.6-0.3-0.8-1.1h-0.7v2.6q-0.6-0.2-1-0.2 0 0.1 0.6 0.2v0.8h0.4q0.4 0 0.7-0.4 0.2-0.4 0.5-0.4l-0.1-0.2q0-0.3 0.2-0.6 0.2-0.5 0.2-0.6zm20.8 21q-0.3-0.4-1.1-0.4v0.7q1.1 0 1.1-0.3zm-13.7-10.4h0.8q-0.2-0.1-0.2-0.5 0-0.2-0.6-0.2zm-16.8-17.3q0-0.5-0.8-0.5l-0.5 0.1q0.2 0 0.2 0.2 0 0.2-0.5 1.3h1.1q0.5-0.6 0.5-1.1zm26.2 27.7q-0.4-0.8-1.2-0.8v1.1l0.5 0.1q0.7 0 0.7-0.4zm-20.8-17.4l1.2 0.3q-0.2-0.1-0.2-0.7 0-0.4-0.4-0.4l-0.6 0.1zm-4.2-3.4q-0.4-0.6-1.3-0.7l0.4 1.1 0.3 0.1q0.6 0 0.6-0.5zm0.3 1.5l1.2 0.4q-0.2-0.1-0.2-0.8 0-0.4-0.5-0.3h-0.5zm3.1 3.3q-0.1-0.1-0.4-0.5-0.2-0.4-1.2-0.7v1.2q1.1-0.1 1.6 0zm1.6 5.2q0 0-0.8-0.4-0.7-0.4-0.7-0.4 0-0.1 0.3 0v-0.7l-0.3-0.1q0 0-0.4 0.1-0.3 0.1-0.4 0-2.1 1.5-3.6 2.2 0 0.2-0.3 0.6-0.4 0.5-0.4 0.6 0 0 0.1 0l0.2-0.1v0.4q3.5-2.1 6.3-2.2zm-5.1-2.1q-0.2-0.2-0.5-0.2-1 0-1 0.4 0.4 0.4 1.1 0.4 0.3-0.4 0.4-0.6zm4.9 7.6q0-0.6-0.4-0.6l-0.6 0.2q-0.3 1.2-0.3 1.7 0 0.6 0.3 0.6 1 0 1-1.9zm-4.7-0.3q-0.2-0.1-1-0.1 0 0 0-1.8l-0.8-0.4h-0.4q-0.1 0-0.1 0.4-0.1 0.2-0.6 0.3 0.1 0.3 0.3 1.5l1.2 0.4h-0.2 0.1q0.2 0 0.8-0.1 0.7-0.2 0.7-0.2zm55.3 2.4q0 0.1-0.1 0.2v-0.1q0.1 0.6 0 2 0 1.3 0 1.9-0.4-0.1-0.6-0.4-0.1-0.3-0.7-0.3-0.2 0-0.6 0-0.4 0.1-0.6 0.1-0.5 0-2.1-0.5-1.9-0.5-2.1-0.5h-0.2q-0.3 0.1-0.7 0.1-1 0-1.3-0.5-0.4-0.8-0.7-1-1.2 0.7-1.3 0.7 0.1 0.1 0.8 0.9 0.5 0.5 1.1 0.5 0.3 0 0.7-0.2 0.5-0.1 0.7-0.1 0.4 0 0.9 0.3l1 1.6q0.6 0.2 1.8 0.2 1.2 0 1.2-0.1-0.1-0.1-0.5-0.1v-0.7q-0.4-0.1-0.6-0.1-0.2 0-0.7 0.1-0.5 0.1-0.8 0.1 0 0-0.1 0-0.2-0.1-0.3-0.1 0 0-0.3-0.6h0.1q0.4 0 1.1-0.1 0.7 0 1 0 1.3 0 1.3 0.3 0 0-0.1 0.1-0.1 0.1-0.1 0.2 0 0.2 0.6 0.4v0.7q0.1 0.1 0.3 0.1 0.3 0 0.6 0 0.3-0.1 0.5-0.1 0 0.1 0.3 1 0 1.7 0 1.7-4.2 0.5-6.4 0.5-1.5 0-2.8-0.2-0.9-0.3-2.8-1 0-0.2 0.5-3.2 0.2-1.9 0.2-3.2 0-0.2-0.1-0.6-0.2-0.5-0.2-0.8 0-0.5 1.3-0.5 0.1 0 0.2 0 0.2 0 0.2 0v0.7q0.6-0.1 2.1-0.4 1.3-0.3 2.1-0.3 0.7 0 1.1 0.5 0.5 0.5 1.1 0.5l0.4-1q0 0 3.5 0 0 0.2 0.1 0.6 0 0.4 0 0.7zm-1.1 1v-0.6q-1-0.2-1.5-0.3l-0.4 0.9q0.3 0 0.6 0 0.2 0 0.6 0 0.4 0 0.7 0z"/>
        <path id="cyber-armor.net" class="s1" aria-label="cyber-armor.net"  d="m94.7 69.2q-1.1 0-1.9-0.5-0.9-0.6-1.3-1.5-0.5-0.9-0.5-2.1 0-1.1 0.5-2.1 0.4-0.9 1.3-1.4 0.9-0.6 2-0.6 0.7 0 1.2 0.1 0.5 0.2 0.9 0.4l-0.4 1.1q-0.4-0.2-0.8-0.3-0.3-0.1-0.8-0.1-1.1 0-1.8 0.8-0.7 0.7-0.7 2.1 0 0.8 0.3 1.4 0.3 0.7 0.8 1.1 0.6 0.4 1.3 0.4 0.6 0 1-0.1 0.4-0.2 0.8-0.4l0.5 1.1q-0.5 0.3-1.1 0.4-0.6 0.2-1.3 0.2zm4.1 3.3q-0.4 0-0.8-0.1-0.3-0.1-0.5-0.2l0.3-1.1q0.2 0.1 0.5 0.1 0.2 0.1 0.6 0.1 0.6 0 1.1-0.4 0.5-0.4 0.9-1.6l0.4-0.9h-0.7l-3.1-6.8 1.2-0.6 2.9 6.5 2.3-6.4 1.2 0.5-2.8 7.8q-0.5 1.2-1 1.9-0.5 0.6-1.1 0.9-0.6 0.3-1.4 0.3zm11.2-3.3q-0.7 0-1.3-0.3-0.6-0.2-1-0.5v0.6h-1.2v-11.1h1.3v4.1q0.3-0.3 0.9-0.7 0.6-0.3 1.4-0.3 0.9 0 1.7 0.5 0.8 0.5 1.2 1.4 0.5 0.8 0.5 2.1 0 1-0.3 1.7-0.3 0.8-0.8 1.3-0.5 0.6-1.1 0.9-0.6 0.3-1.3 0.3zm-0.4-1.2q0.8 0 1.3-0.4 0.6-0.3 0.9-1 0.3-0.7 0.3-1.5 0-0.9-0.3-1.6-0.3-0.6-0.8-1-0.6-0.3-1.2-0.3-0.7 0-1.2 0.3-0.5 0.3-0.8 0.7v4.2q0.4 0.3 0.8 0.4 0.5 0.2 1 0.2zm8.9 1.2q-1.7 0-2.7-1.1-0.9-1.1-0.9-3 0-1.2 0.4-2.1 0.5-0.9 1.2-1.4 0.8-0.6 1.9-0.6 1.1 0 1.9 0.5 0.7 0.5 1.1 1.3 0.4 0.8 0.4 1.8 0 0.6-0.1 1.1h-5.5q0.2 1 0.8 1.7 0.6 0.6 1.7 0.6 0.7 0 1.2-0.2 0.5-0.1 1-0.3l0.3 1.1q-0.5 0.3-1.2 0.4-0.6 0.2-1.5 0.2zm-2.3-4.6h4.3q0-1.2-0.6-1.8-0.5-0.6-1.5-0.6-0.9 0-1.5 0.6-0.5 0.6-0.7 1.8zm8.7 4.4h-1.3v-7.8h1.3v1.7q0.2-0.5 0.5-0.9 0.3-0.5 0.8-0.7 0.5-0.3 1.2-0.3 0.2 0 0.4 0 0.2 0.1 0.4 0.1l-0.4 1.4q-0.3-0.1-0.7-0.1-0.5 0-1.1 0.3-0.5 0.3-0.8 1-0.3 0.6-0.3 1.7zm10.5-4.6h-5.1v-1.2h5.1zm6.1 4.7q-1 0-1.7-0.5-0.8-0.5-1.3-1.4-0.5-0.9-0.5-2.1 0-1.2 0.5-2.1 0.5-1 1.3-1.5 0.8-0.6 1.9-0.6 0.7 0 1.2 0.3 0.6 0.2 1 0.6v-0.7h1.2v5.9q0 0.6 0.3 0.8 0.3 0.2 0.6 0.2l-0.3 1q-1.4 0-1.7-1.2-0.4 0.5-1 0.9-0.6 0.4-1.5 0.4zm0.3-1.2q0.6 0 1.1-0.3 0.5-0.3 0.9-0.7v-4.2q-0.4-0.2-0.9-0.4-0.5-0.2-1.1-0.2-0.7 0-1.2 0.4-0.6 0.3-0.9 1-0.3 0.7-0.3 1.5 0 0.9 0.3 1.5 0.3 0.7 0.9 1 0.5 0.4 1.2 0.4zm7.3 1h-1.3v-7.8h1.3v1.7q0.2-0.5 0.5-0.9 0.4-0.4 0.8-0.7 0.5-0.3 1.2-0.3 0.2 0 0.5 0.1 0.2 0 0.3 0l-0.4 1.4q-0.3-0.1-0.7-0.1-0.5 0-1 0.3-0.5 0.3-0.8 1-0.4 0.7-0.4 1.7zm6 0h-1.3v-7.8h1.3v1.3q0.4-0.6 1-1.1 0.7-0.4 1.5-0.4 0.9 0 1.5 0.5 0.6 0.4 0.9 1.2 0.4-0.7 1.1-1.2 0.6-0.5 1.6-0.5 1.2 0 1.8 0.8 0.7 0.8 0.7 2.1v5.1h-1.4v-5q0-0.8-0.3-1.3-0.4-0.5-1.1-0.5-0.7 0-1.2 0.5-0.6 0.5-1 1.2v5.1h-1.4v-5q0-0.8-0.4-1.3-0.3-0.5-1-0.5-0.7 0-1.3 0.5-0.5 0.5-1 1.1zm15.7 0.2q-1.1 0-2-0.5-0.9-0.5-1.4-1.4-0.5-1-0.5-2.2 0-1.2 0.5-2.2 0.5-0.9 1.4-1.4 0.9-0.5 2-0.5 1.1 0 2 0.5 0.8 0.5 1.3 1.4 0.6 0.9 0.6 2.2 0 1.2-0.5 2.2-0.5 0.9-1.4 1.4-0.9 0.5-2 0.5zm0-1.2q1.2 0 1.8-0.8 0.7-0.8 0.7-2.1 0-0.8-0.3-1.4-0.4-0.7-0.9-1.1-0.6-0.4-1.3-0.4-1.2 0-1.9 0.8-0.6 0.8-0.6 2.1 0 0.8 0.3 1.4 0.3 0.7 0.9 1.1 0.6 0.4 1.3 0.4zm7 1h-1.3v-7.8h1.3v1.7q0.2-0.5 0.5-0.9 0.3-0.4 0.8-0.7 0.5-0.3 1.2-0.3 0.2 0 0.4 0.1 0.3 0 0.4 0l-0.4 1.4q-0.3-0.1-0.7-0.1-0.5 0-1 0.3-0.5 0.3-0.9 1-0.3 0.7-0.3 1.7zm4.2 0.2q-0.4 0-0.7-0.3-0.3-0.3-0.3-0.7 0-0.5 0.3-0.8 0.2-0.3 0.7-0.3 0.4 0 0.7 0.3 0.3 0.3 0.3 0.8 0 0.4-0.3 0.7-0.3 0.3-0.7 0.3zm4.8-0.2h-1.3v-7.8h1.3v1.3q0.4-0.6 1-1.1 0.7-0.4 1.6-0.4 1.3 0 2 0.8 0.6 0.8 0.6 2.1v5.1h-1.3v-5q0-0.8-0.4-1.3-0.4-0.5-1.1-0.5-0.7 0-1.3 0.5-0.7 0.5-1.1 1.1zm10.7 0.2q-1.7 0-2.7-1.1-1-1-1-3 0-1.2 0.4-2.1 0.5-0.9 1.3-1.4 0.8-0.6 1.8-0.6 1.2 0 1.9 0.5 0.7 0.5 1.1 1.3 0.4 0.9 0.4 1.9 0 0.5 0 1h-5.5q0.1 1.1 0.8 1.7 0.6 0.6 1.6 0.6 0.7 0 1.2-0.1 0.6-0.2 1.1-0.4l0.3 1.1q-0.6 0.3-1.2 0.4-0.7 0.2-1.5 0.2zm-2.3-4.6h4.3q0-1.2-0.6-1.8-0.6-0.6-1.6-0.6-0.9 0-1.4 0.6-0.6 0.6-0.7 1.8zm10 4.6q-1.1 0-1.8-0.7-0.6-0.8-0.6-2.2v-3.6h-1.4v-1.2h1.4l0.3-2.5h1v2.5h2.2v1.2h-2.2v3.7q0 0.9 0.4 1.3 0.4 0.3 0.9 0.3 0.4 0 0.7-0.1 0.3-0.1 0.6-0.3l0.4 1.1q-0.3 0.2-0.8 0.3-0.5 0.2-1.1 0.2z"/>
</svg>
