<?xml version="1.0" encoding="utf-8"?>
<!-- Generator: Adobe Illustrator 25.2.3, SVG Export Plug-In . SVG Version: 6.00 Build 0)  -->
<svg version="1.1" id="Capa_1" xmlns="http://www.w3.org/2000/svg" xmlns:xlink="http://www.w3.org/1999/xlink" x="0px" y="0px"
         width="64px" height="64px" viewBox="0 0 64 64" style="enable-background:new 0 0 64 64;" xml:space="preserve">
<style type="text/css">
        .st0{fill:#FFFFFF;}
        .st1{fill:#007AFF;}
</style>
<g>
        <polygon class="st0" points="37,38.5 29.3,13.3 23.2,13.3 15.4,38.5 7.7,13.3 0.7,13.3 11.9,50 17.6,50 26.2,23.4 34.8,50 40.5,50 
                51.7,13.3 44.7,13.3     "/>
        <circle class="st1" cx="57.5" cy="44.9" r="5.8"/>
</g>
</svg>
wazuh-dashboard@test2-indexer-dashboard-b7d86b7c8-8xlrq:~/etc/custom_welcome/Assets/default_branding$ cat /usr/share/wazuh-dashboard/etc/custom_welcome/Assets/default_branding/wazuh_mark_default_mode.svg 
<?xml version="1.0" encoding="utf-8"?>
<!-- Generator: Adobe Illustrator 25.2.3, SVG Export Plug-In . SVG Version: 6.00 Build 0)  -->
<svg version="1.1" id="Capa_1" xmlns="http://www.w3.org/2000/svg" xmlns:xlink="http://www.w3.org/1999/xlink" x="0px" y="0px"
         width="64px" height="64px" viewBox="0 0 64 64" style="enable-background:new 0 0 64 64;" xml:space="preserve">
<style type="text/css">
        .st0{fill:#007AFF;}
</style>
<g>
        <polygon points="37,38.4 29.3,13.5 23.3,13.5 15.6,38.4 8,13.5 1.1,13.5 12.1,49.8 17.8,49.8 26.3,23.5 34.8,49.8 40.4,49.8 
                51.5,13.5 44.6,13.5     "/>
        <circle class="st0" cx="57.2" cy="44.8" r="5.7"/>
</g>
</svg>
