<svg version="1.2" xmlns="http://www.w3.org/2000/svg" viewBox="0 0 300 70" width="300" height="70">
        <title>New Project</title>
        <style>
                .s0 { fill: #cccccc } 
        </style>
        <path id="XDR" class="s0" aria-label="XDR"  d="m94.1 11q-0.8 0.8-1.4 0.8-0.7 0-0.7-0.6l0.7-0.5 0.3-0.1q1.1 0 1.1 0.4zm-1.8 22.7q0 0.5-0.7 1l-0.1-0.7q0-0.6 0.4-0.6 0.4 0 0.4 0.3zm-5.7-1.7l0.6 0.7-1.1 0.8q-0.4-0.5-0.4-1 0-0.7 0.8-0.5zm4.9 2.9q0 1.1-3.3 2.5v-0.8q-1.9-0.5-1.9-0.8l2.4-0.8q0.4-0.7 1.2-0.7 1.6 0 1.6 0.6zm27 23.4l0.5 1.2q-10.9 0.7-16.4 0.7-3.6 0-4.3-0.1-0.8-0.2-1.1-1-0.4-1.3-1.3-2.3l-1.6-0.5v-0.7l2.2 0.3-0.1-0.3q0-0.3 0.2-0.6 0.3-0.4 0.4-0.6l-1.6-0.8q-0.1-0.1-0.1-0.4 0-0.1 0.3-0.2 0.4-0.2 0.4-0.3l-0.1-0.2q-0.4 0.3-1.6 0.8-1.1 0.4-1.7 0.7-0.6-1.1-2.1-3.2-1.6-2.2-2.3-3.3 0.9 0 2.8 0.4l1.1 1.1q0.2 0.1 0.4 0.1 0.1 0 0.6-0.1 0.3-0.1 0.6 0v-1.5l-0.3-0.1q-0.4 0-1 0.2-0.5 0.3-0.7 0.3-0.5 0-1.5-0.6-0.9-0.7-1.5-0.7h-0.5l0.1 0.3q0 0.3-0.3 0.3-0.7 0-0.7-1.7 0-0.1-0.2-0.8l-0.2 0.1q-0.7 0-1.4-0.8 1-0.2 1.6-0.4 0 0-0.3 0-0.9 0-0.9-0.7 0.3-0.5 1.2-0.5v-0.4h-0.7q-0.7 0-1.6 0.4-0.8 0.4-1 0.4l-1.6-1.5q-0.3 0.1-1.1 0.2-0.8 0-1.1 0.1-0.7 0.4-0.8 1.5-0.1 1.3-0.3 1.6-0.9 0.6-2.2 1.6 0 0.6-0.6 1.9-0.5 0.5-1.1 0.5-0.3 0-0.5 1.6l-0.1 0.2h-0.5q-0.3 0.7-1.1 2-0.5-0.1-1.6-0.4-1.1-0.2-1.7-0.4v-1.2h-1.6l-0.6 1.2q-0.2 0.1-0.7 0-0.5-0.2-0.7-0.2-0.4 0-0.7 0.2 1.1 0.3 2.7 0.4l-0.6 1.1h0.1q1 0 2.4-0.2 2.1-0.5 2.5-0.5-2.2 2.8-6.1 8.5-2.2 0-6.8 0.1-4.6 0.1-7 0.1-2.4 0-7.1-0.2 0-0.7 0.6-1.9 0.3-0.4 1.4-0.6 1.1-0.3 1.4-0.6 0.3-0.4 0.4-1.4 0.1-0.9 0.6-1.3l1.7-0.4q0-0.6 0.6-1.6 0.9 0.5 1.3 0.5 0.1 0 0.3-0.1l-1.1-1.1q1.5-1 3.3-3.1l-0.1-0.8 0.1-0.4h1.1q-0.1 0.2-0.1-1.2l0.1-0.4 1.1-0.3q0.1-0.4 0.2-1 0.2-0.7 0.3-1 1 0.6 1.9 1.3 0 0-0.2-0.1v0.8q0.4 0.1 0.7 0.1 0.8 0 3.9-0.5 3.2-0.6 3.6-0.8 0.2-0.5 1.1-1.1-1.5-0.4-2-0.4h-0.2l-0.5 0.7q-2 0.5-2.7 0.5-0.9 0-3.4-0.5 0.7-0.2 0.7-1.2 0-1-0.4-1-0.2 0-0.3 0.3v-0.8q1.1-1.1 1.6-1.9h1.1q1-1.2 2.8-3.5v-1.2q1.7 0.1 2.5-1.2 0.8-1.5 3.6-1.8-0.4-0.1-0.9-0.1-0.9 0.1-0.9 0.1h-0.4l-13.8-14-0.1-0.4q0-0.4 0.4-1.1 0.3-0.9 0.3-1.2 1.9 0.7 5 1.5-1.1-0.4-3.4-1.1v-0.8q-1.6-1.1-1.6-1.3 0-0.2 1.8-0.1 2.7 0.3 2.5 0.3v-0.8q-2.4-0.1-4.9 0v-0.8h0.3q0.8 0 1.4-0.4-3.8-0.5-4.5-1.3-0.5-0.6-0.5-3.7 0.5 0 2.3 0.2 1.3 0.2 2.2 0.2 0.9 0 2.3-0.2 1.4-0.3 2.2-0.3 2.6 0 2.6 1.6 0.2 0.1 2.7 0.4 0.1 0.2 0.4 0.9 0.4 0.7 0.4 1-0.5 0.5-1.9 1.2 2.4-0.3 2.5-0.3 0.4 0 2.2 1.7 1.8 1.7 1.8 2.1 0 0.2-1.6 0.8-1.9 0.6-2.1 0.7-0.2 0.1-0.5 0.6-0.3 0.6-0.6 0.6-0.2 0-0.6-0.2-0.4-0.3-0.7-0.3-0.7 0-0.7 0.4 0 0.1 0.4 0.1 0.3 0 0.5 0v1.5h-2.2q0.8 0.8 0.8 1.1 0 0.1-0.2 0.1 0.3 0.2 1.4 0.8 0.9 0.5 1.7 0.5 0.4 0 0.7-0.1l-0.6-2.4q0.9 0 1-0.2-0.6-0.2-1-0.2v-0.7q1.1-0.1 3.3-0.4l0.6-1.2q-0.5 0.3-0.9 0.3 1.4-1.1 3.3-1.1 0.1 0 0 0-0.1 0.1-0.3 0.1 1.1 1.2 2.3 2.7h1.1q-0.1 1.7 1.2 2.6 1.5 0.8 3.2 1.7 1-1.1 2.1-2.2 1.1-1.1 1.1-2.2 0-0.2 0.1-0.3 0.4 0 1.1-0.3 0.5-0.3 1-0.5v1.2h1.7v-1.2l-1.7-1.5v-0.1q0-0.3 0.4-0.4 0.3-0.1 0.3-0.3 0-0.2-0.1-0.4 1.5-0.2 4.4-0.4 0.1-0.4 0.2-0.7 0.2-0.5 0.9-0.5 0.2 0 0.5 0.3 0.4 0.2 0.7 0.2h0.5q-0.8-0.4-1.5-0.7-1.3-0.6-1.3-0.7l3.9-0.6v-1.1l-0.4-0.1q-0.2 0-1.8 0.5-0.7-1.5-0.7-2.2l0.1 0.2h0.6v-1.2q0.8 0 2.2-0.4-0.5-0.3-0.5-0.6l0.5-0.9h21.4q-0.3 0.4-0.5 0.3-0.9-0.1-0.6-0.1-0.3 0-0.5 0.2v1.5l-6.1 5.5q-1.1 0.2-3.3 0h0.2 0.1q0 0.1-0.2 0.2 0.1 0.1 0.5 0.1l1.6 0.1q-1.8 2.4-5.1 6-4.6 5-5.3 5.9-0.8-0.9-1.1-1.5 0.5 0 0.5-0.2 0-0.3-1.6-0.6-0.5 0.6-0.9 1.3-0.6 0.8-1.4 0.8-0.7 0-0.5-0.9-0.2 0.2-0.8 0.3-0.6 0-0.8 0.1v1.1l-1.6 0.8q-0.2-0.3 0-1.2h-1.2v-0.3q0-0.8 0.6-1.6v-0.7h1.6l-0.5 1.1h0.2q2.5 0.2 5.3-3.5h1.1l-0.6-0.7-2.2 0.4q0.1-0.1 0.2-0.2 0-0.1-0.2-0.1-0.4 0-1.1 0.3-0.1 0.1-0.3 0.9 0 0.3-0.7 0.3-0.4 0-1.2-0.1 0.4 0.1 0.4 0.2 0 0.1-2 0.6 0.3-1.6 1.6-2.4 1.5-0.9 1.7-1.5-1.4 0.5-2.8 1.1-0.6 0.1-3.3 0.5l-0.5 0.7q0.3-0.1 0.6-0.1 0.3 0 0.3 0.3l-0.4 0.6h0.2q0.3 0-0.4 0.5-1.1 0.9-2 1.4h1.1q1.6 1.7 1.6 2.2 0 0.2-1.8 0.5-1 0.3-2 0.4v0.8l0.5 0.1q0.3 0 0.6-0.3 0.4-0.3 0.7-0.3l0.4 0.1 0.6 1.2q3-0.8 3.9-0.8 0.8 0 2.5 0.4 1.7 0.3 2.4 0.4v0.7q-0.6 0.7-1.7 2l-1.1-0.4v-1.1l-1.6 0.4v0.7q-1 0-1-0.2 0.1-0.2 0.5-0.2-1 0.3-2.9 0.8v1.2h-0.4q-0.2 0 0-0.1 0.1-0.2 0.1-0.2 0-0.1-1.3-0.1v-0.8h-0.5q-0.2 0-0.7 0.2-0.4 0.2-1 0.2l-0.5 0.8h-0.3q-0.3 0-0.3-0.6v-0.2q-0.2 0-1.2 0.2-1 0.2-1.5 0.2l1.1 1.1 0.5 0.1q0.3 0 0.6-0.2 0.4-0.3 0.6-0.3h0.5l-0.6 1.6h1.7q-0.8 0.3-1.7 1.5l0.1-0.1q0-0.6-1.7-0.6-0.2 0.2-0.1 0.4 0.2 0.5 0.2 0.5 0 0.7-1.9 1.3-1.3 0.5-2.6 0.8 0.8 0.3 2.2 0.5l-0.5 0.7h0.3q1.3 0 1.3-0.6 0-0.3-0.6-0.1l0.6-0.8 1.1 0.3q-0.1 0-0.2 0 0-0.1 1.1-0.4 0.6-0.2 1.3-0.3 0-0.4 0 0.9 0 0.8-0.6 0.7v1.1q0.7 0.1 2.2 0.4-0.4 0-0.4 0.2 0 0.3 1.5 1v-1.6h-1.6l0.5-0.8q-0.1 0 1.8 0 0.6 0 0.6 0.3 0 0.6-0.7 1.7 0.9 0 2.7 0.4l0.1-0.7q0.1-0.3 0.5-0.5v-0.8q1.4-0.5 3.3-2.7 0.1 0 0.8 0.3 0.4 0.1 0.8 0.1h0.6q-0.3-0.1-0.3-0.4 0-0.3 0.8-1.2 0.2 1 1.1 2.8 0.5 0.5 1.3 0.6 0.9 0.1 1.1 0.5 0.4 0.5 0.4 2.3 0 0.5 0.5 1.2 0.2 0.1 0.5 0.1 0.3 0 0.5-0.3 0.2-0.2 0.4-0.2 0.1 0 0.2 0v1.6q-0.9-0.5-1.3-0.5-0.3 0-0.3 0.3 0-0.2 0.5 1.7-0.3 0.2-0.7 0.4 0 0-0.3 0.7-0.7-0.4-1.1-0.4-0.4 0-0.6 0.1 0.8 1.3 1.1 2.3h1.6q0.4-1.2 0.8-2.4 0.2-0.3 2.1-1.9 1.9 2 5.4 6.2h1.1q0.6 0.8 0.6 2.7 4.2 1.3 4.2 2.4-0.3 0.6-1 0.7 1.7 0.6 4.5 2zm-66.5-51.1l-0.6 0.7q0.4 1.3 0.4 2.4 0 1.1-0.4 1.9l-1.2 0.4q-1.1-1.2-2.2-2.4-0.8-0.7-3.2-1.9l-0.6-1.1q1 0 2.9-0.2 2-0.2 2.9-0.2 1.3 0 2 0.4zm4.7 8.3q-0.5 0-0.9-0.2 0 0 0 0.6 0 0.2-0.3 0.2h-0.3v-1.2q-0.6-0.2-1-0.2-0.3 0.2-1 0.2h-0.2q0-0.2 0-0.4 0-0.3 0-0.4 0-0.4 0.3-0.4 0.4 0 1.9 0.8 1.4 0.7 1.5 1zm32 22.4q0 0.9-1.6 1-0.5-0.5-1.6-1.5 0.3-0.6 0.7-0.6 0.3 0 0.4 0.2 0.3-0.1 0.1-0.3-0.2-0.2-0.2-0.2h0.1q0 0 0.2 0 0.2 0.1 0.3 0.1v0.8h0.5q1.1 0 1.1 0.5zm12.1-26.5q0-0.7-1.6-0.7v1.5q1.6 0 1.6-0.8zm5.6 3.5q-0.7-0.3 0-1.5-0.3-0.1-2.7-0.5-2.4-0.3-2.9-0.3-0.6 0-1.9 0.2-1.3 0.2-1.9 0.2v0.8q1.9-0.2 2.8-0.2 2.8 0 6.6 1.3zm-41.2-3.8v-1.2q-0.2-0.1-0.8-0.7-0.5-0.5-1-0.5h-0.5v0.8q-0.3-0.1-0.6-0.1-0.4 0-0.4 0.3 0 0.3 0.4 1.4 2.9 0 2.9 0zm23.9 17.7q-0.4-0.4-1.5-0.4l-0.5 0.9q2-0.3 2-0.5zm-8.6-3.8h1.1q-0.2-0.1-0.2-0.6 0-0.2-0.9-0.2zm-15.3-12.9q0-0.6 0-0.6-1.6-0.1-3-0.1-1.4-0.1-3.1-0.7 0.1 0.1 1.8 1.7 1 1.1 2.4 1.1l0.8-0.1q-0.2-0.2-0.2-0.7 0-0.7 0.7-0.8v0.3h0.2q0.4 0 0.4-0.1zm2.4 2.9l0.3-0.1v-1.1q0-0.4-1.1-0.4-3.5 0-3.5 0.6 0.4 0.3 0.4 0.7 0 0.2 0.9 0.2v1.2h1.1l0.5-1.2q-0.1 0.1 1.4 0.1zm16.2 13.5h1.1q-0.1-0.1-0.1-0.6 0-0.2-1-0.2zm-8-7.3q0-0.5-0.7-0.5l-0.7 0.1v1.2q-0.4-0.2-1-0.2-0.3 0-0.3 0.1 0 0.5 1.9 0.8 0.8-0.9 0.8-1.5zm6.4 6.5l1.1-0.7h-1.6q-1.2 0-1.2 0.2 0 0.2 1.7 0.5zm-9-6.6q0-0.1-0.4-0.4-0.4-0.2-0.5-0.7v-0.4h-2.2q0 0 1.6 2 1.5-0.3 1.5-0.5zm-17.3-12.1l0.4-0.6q-1.5 0.1-2.2 0l0.6 1.5q1.4 0 1.4-0.3-0.2-0.4-0.2-0.6zm16.4 14.9h1.1q-0.2-0.1-0.2-0.6 0-0.2-0.9-0.2zm8.8 6.2h1.1q-0.3-0.1-0.3-0.5 0-0.2-0.8-0.2zm-17.7-11.3l1.8 0.4q-0.4-0.1-0.4-0.9 0-0.3-0.5-0.3-1.3 0-1.9 0.6-0.8 0.8-1.2 0.9l-1.6-0.3v0.1q-0.1 0.7 1.5 0.7 1.2 0 2.3-1.2zm48.4 35.7q-0.3-0.5-1.4-0.5-0.6 0-0.6 0.3 0 0.3 1.5 0.9 0.3-0.2 0.5-0.7zm-33.8-23.3q0-0.3-2.5-0.8l1.2 0.8 0.9 0.1q0.4 0 0.4-0.1zm16.4 11.8q-0.5-0.5-1.8-0.6l0.6 0.8 0.5 0.1q0.7 0 0.7-0.3zm-31-21.7q0-0.2-0.5-0.2-0.8 0-0.8 0.2 0 0.2 0.8 0.6 0.5-0.4 0.5-0.6zm36.9 28.5h1.1q-0.2-0.1-0.2-0.6 0-0.2-0.9-0.2zm8.7 2.4q0-0.9-4.8-1.2-0.6 2-0.6 2.5 0 0.4 0.9 0.8 0.6 0.3 1.3 0.5 0.4 1 0.6 1.6h1.6q-0.5-0.1-0.5-0.6 0-0.3 0.2-0.7 0.3-0.6 0.3-0.9l-0.5-0.5q1.5-0.9 1.5-1.5zm-12.8-5.6q-0.2-0.3-1-0.3-0.8 0-0.8 0.2 0 0.3 1.5 0.6 0.3-0.2 0.3-0.5zm2.1 3l-0.7-0.2q0.1 0.2 0.1 0.3 0 0.1-0.4 0.1h-0.3v-1.5q-0.2-0.2-1.2-0.5-1.3-0.2-1.5-0.3v1.9h0.5q0.3 0 0.7-0.3 0.3-0.4 0.4-0.4 0.4 0.6 1.1 1.9h0.3q0.4 0 0.4-0.2-0.1-0.1-0.1-0.2 0.6-0.3 0.7-0.6zm-0.2 2.5h1.1q-0.2 0-0.2-0.5 0-0.2-0.9-0.2zm5.5 2.7q-0.6-0.4-1.7-0.4v0.7q1.7 0 1.7-0.3zm-22.3-14.4q-0.8-0.1-2.4-0.3l-0.5 0.7 2.2-0.2q0.4-0.1 0.7-0.2zm-7.9-3.1l1-1.5q0.2 0-1.2 0-0.2 0-0.4 0l-0.5-1.2h-1.1q-1.9 1.4-1.9 1.7 0 0.2 4.1 1zm-0.4 1q-0.6-0.2-1.8-0.2l-0.6 0.1v0.3q0.1 0 1.2-0.1 1.2-0.1 1.2-0.1zm1.4 2.6q0-0.7-1.6-1.2-0.3 0.5-0.3 0.9 0 0.6 1 0.6 0.9 0 0.9-0.3zm0.6 3h1.1q-0.2-0.1-0.2-0.5 0-0.2-0.9-0.2zm-3.3 3.2q-0.1-0.2-0.8-0.2-0.5 0-0.5 0.2 0 0.3 0.8 0.7 0.4-0.3 0.5-0.7zm-1.7-0.5q-0.6-0.4-1.6-0.4v0.7q1.6 0 1.6-0.3zm3.2 2q-0.2-0.2-0.8-0.2-1.8 0-1.8 1.4 0.3 0.3 0.7 0.3 0.6 0 1.2-0.5 0.7-0.6 0.7-1zm-7.7 4.7q0-0.2-0.2-0.2-0.3 0-0.8 0.4-0.4 0.5-0.4 0.7 0.1 0.2 0.6 0.2l0.5-0.1q0-0.1 0.1-0.4 0.2-0.4 0.2-0.6zm-0.3 1.4h-1.8q-0.2 0.4-0.5 1.2-0.3 0.8-0.6 1.2h-0.5q-0.2 0.4-0.2 0.7 0 0.5 0.6 0.5 1.8 0 2.3-1.4 0.3-1.1 0.7-2.2zm-9.8 2.2q0-0.2-2.4-0.7l1.1 0.9h0.8q0.5 0 0.5-0.2zm131.3-34.3l-1.3 0.5q-1.5-0.9-1.5-1.1 0-0.1 0.2-0.1 2.6 0 2.6 0.7zm-0.1 1.5q0 0.2-0.4 0.2l-0.1-0.1q-1.2-0.5-1.2-0.7 0-0.1 0.3-0.1 1.4 0 1.4 0.7zm1.6 18.7q0 5.3-3.9 10.1-0.9-0.5-1.5-0.5-0.3 0-0.7 0.1 0.9 1.1 0.9 1.3-0.2 0.1-0.4 0v0.7q-1.2 0-3.3 0.4-0.4 0.1-1.3 1.2-0.7 0.9-1.8 0.9-0.9 0-0.9-0.9l0.7 0.1q0.5 0 0.5-0.2 0-0.6-2.4-0.6l-0.5 1.5q0.3-0.1 0.7-0.1 0.3 0 0.3 0.1 0 0.4-2.8 0.8-2 0.3-4.5 0.8v0.4h-0.2q-0.4 0.1-1.2-0.1-0.7-0.3-1.1-0.3h-0.3v0.8h0.6 0.1q0 0-1.3 0.4-0.3-0.2-0.2-0.4 0.2-0.5 0.2-0.5 0-0.3-1.1-0.3l-0.6 0.8q0.3 0 0.3-0.1 0-0.3-1.4-0.3l1.1 0.8q-1.8 0-3.7 0-2.7-0.1-3.6-0.4 0 0-0.1 0 0-0.1 0.2-0.1 0.4-0.1 0.9-0.1 0.6-0.1 0.6-0.2 0-0.2-0.6-0.5-0.6-0.3-1-0.3v-0.4h1.1q2.4 0 5.7 0.4l0.5-0.8q-0.8-0.1-1.7-0.3 2.7-0.1 8-0.1v-1.2q-0.3-0.1-0.6-0.1 0 0 0.1 0.4 0 0.2-0.2 0.2l-0.5-0.1-1.6-1.2h-0.6q-0.8 0-2.3 0.5-1.5 0.3-2.2 0.3 0.1 0-3.4-0.5-1.1-0.2-1.1-0.3-0.7 0-2.1 0.1-1.2 0.1-1.8 0.1-1 0-1.8-0.2l-1.1-1.1-0.6-0.1q-2 0-2.2 0.4 0.2 0 1 0v0.8q-0.4 0.1-0.7 0.1 0.1 0-2.7-0.5v0.9q-0.8 0-1.1-0.4-0.3-0.5-1.2-0.5 0 0.2-1 0.9l0.5 1.1-1.7 0.4q-0.2 0 0-0.4 0.2-0.6 0.2-0.7 0-1.3-13.8-0.9 0.2-1.1 0.6-3.6-0.5 0.2-1.2 0.2-0.4-0.2-1.7-0.2 0.8 2.1 0.8 1.9-0.3 0.6-1.3 0.9 0.2-2 0.2-4.1 0-3-0.4-8.9-0.4-5.9-0.4-8.9 0.1 0 1.2-0.1 0.7-0.1 0.7-0.3-0.1-0.1-0.5-0.2l-1.4-0.2v-4.4q0.7-0.1 1 0 0.6 0.1 0.7 0.1 0.3 0 1.1-0.5 0.8-0.5 0.8-0.7 0-0.4-1.3-0.9 0.5-0.2 1.7-0.3v-1.2q1-0.4 2.4-0.4 1.2 0 2.5 0h1.3l-1.1-0.9q-0.6-0.1-1.7-0.1-1.2 0-3.6 0.3-2.4 0.2-3.6 0.2h-0.2v-1.6h1.8q-0.2-0.3-1.4-0.3l-0.4-0.1v-12.7q-0.1 0 1.9 0h0.4l0.5-0.8 1.1-0.1-3.3 0.1q-0.6-0.5-0.6-0.9l0.6-0.3q2-0.2 4-0.2 2.6 0 7.9 0.3 5.3 0.3 7.9 0.3 3.8 0 11.2-0.1 7.5-0.2 11.2-0.2 1.8 0 3.1 0.3l0.5 0.8q0.6 0.1 1.7 0.2 1.2 0 1.8 0.2v1.2q0.6 0.2 1.5 0.1 1.4-0.2 1.6-0.2 1.2 0 1.4 1.3 0.8 0.2 2.3 0.8-0.4 0.2-0.5 0.9-0.1 0.5-0.2 1.1 0 0-1.1 0-1 0.1-1 0.2 0.3 0.3 1 0.6l0.6 1.2 1.7-0.4q0.2-0.1 0.5-1.2h1.2q1 0.6 2.3 2v1.1h1.1q0.2 0.5 0.1 1.2l-0.1 2.5h-1.1q-0.6-1.3-1.7-4-0.4-0.1-3.5-0.8v1.6l1.5-0.1 0.8 0.1q0.2 0 0.2 0.5 0 0.5 0.4 0.6l-0.6 1.6q-3.8-0.4-4.5-0.4-0.4-0.1-0.4 0.1 0 0.3 2.5 0.7 1.5 0.2 3 0.5l0.6 0.7q-0.5-0.1-0.6-0.1-0.6 0-0.6 0.8v0.2q0.9 0.1 2.3 0.7l-0.1 0.9 0.1 0.3 2.2 1.2q-0.5 0.2-2.2 0 0 1.2-0.6 3.6 0.3-0.1 0.8 0 0.6 0.1 0.7 0.1 0.5 0 1.1-0.7 0.5-0.5 0.9-1 0.2 2 0.5 6-0.7-0.3-2.8-0.8l-0.6 1.6h0.6v0.8q1.4-0.1 1.4-0.3-0.1-0.1-0.3-0.1h1.2l0.5-1.2q0.1 1.6 0.9 4.9 0.7 3.2 0.7 4.9zm-35.7 14.8q-0.3 0.5-1 0.5-0.4-1-0.4-1 0-0.2 0.2-0.2 1.2 0 1.2 0.7zm0.1 2.5q-0.4 0-0.6 0.1-0.1 0 0 0.2 0.1 0.2 0.1 0.3v0.2q-3.6-0.2-10.8-1.2l-1.1 1.2q-0.9-0.3-0.9-0.6 0-0.1 0.3-0.2-0.3-0.1-1.1-0.4 0.5-0.7 1.7-2 0.5 0.1 3.1 0.5 1.9 0.3 3.1 0.3 1.1 0 2.2-0.4 2 0.4 4 2zm-24.4-3.5q-0.4 0.7-1.4 0.7-2.3 0-2.3-0.9 0.6-0.7 2-0.7 1.7 0 1.7 0.9zm5.2 4.3q-0.8 0-2.3 0.1-1.6 0.1-2.3 0.1-3 0-3.7-0.8-0.3-0.3-0.7-2.6h0.5q1.9 0 7.3 0.4 0 0 1.2 2.8zm37.7-50.3q-1-0.3-2.6-0.3l0.5 0.8q2.1 0 2.1-0.5zm-4.6-0.1l-0.8-0.2v-1.2h-1.2l-1.1 0.8q1.1 0.2 3.1 0.6zm12.1 11.4h1.2q-0.2-0.2-0.2-0.6 0-0.3-1-0.3zm-16.3-10.9q0-0.8-1.7-1.4l0.5 1.6q0.7 0.1 0.8 0.1 0.4 0 0.4-0.3zm14.8 11.3q0-0.2-0.7-0.4v-0.8h-1.7v0.8q0.3 0 1 0.3 0.7 0.2 1.1 0.2 0.2 0 0.3-0.1zm-9.9-7.7q0-0.8-2.2-2.2h-3.3q0.3 0.4 1.1 2.3h0.4q0.4 0 0.9 0.2 0.6 0.3 0.9 0.3h0.7v-0.9q0.7 0.4 1.2 0.4 0.3 0 0.3-0.1zm-5.5-0.6l-1.1-1.3h-6.8l1.1 1.3h0.3q0.8 0 0.9-0.4 0.7-0.2 1.5-0.2 0.8 0 2.1 0.3 1.4 0.2 2 0.3zm20.9 15.9h1.2q-1.3-0.3-2.9-0.4v-0.8q-1.4-0.3-3.9-0.4-2.8-0.2-4-0.4-0.1-0.2-0.1-0.7 0-0.2-0.4-0.5l-0.7 0.8 2.3 2q0.3 0.1 0.9 0 0.7-0.1 0.9-0.1 0.3 0 0.5 0.1-0.1 1.1 1.1 1.7 1.1 0.5 2.3 1.1 0.1-1 0.3-1.1 0.2-0.1 1.5-0.1 0.5 0 0.5 0zm-10-4.1q0-0.3-0.4-0.9-0.5-0.6-1-0.6h-0.5l0.5 1.6q0.8 0.3 1 0.3 0.4 0 0.4-0.4zm-21.9-15.5q0-0.5-4.4-2.3 0.3 0 0.3 0.2 0 0.4-0.8 1.4 0 0 2.8 0v0.8q0.9 0.1 1.4 0.1 0.7 0 0.7-0.2zm3 4.1q-1.9-0.3-1.9-0.9 0-0.2 0.2-1.1h-1.1q-0.4 0-0.6 0v-0.9q-1-0.1-1.7-0.3 0.5 0.9 1.7 2.8h1.7v0.7l0.3 0.1q0.7 0 1.4-0.4zm32.7 24.5q-0.6-0.5-1.6-0.6v0.7l0.8 0.1q0.8 0 0.8-0.2zm-43.4-30.9q-1.2-0.3-4-1.2v0.2q0 1.1 1.9 1.1 1.1 0 2.1-0.1zm1.1 1.6q-0.6-0.4-1.7-0.4v0.8q1.7 0 1.7-0.4zm4.5 5.6q-1.1-0.9-2.3-1.8-1.4-1-2.8-1-1.5 0-1.5 1 0.3 0.7 1.5 0.6v0.7q0.3 0.1 0.6 0.1 0.4 0 0.9-0.2 0.5-0.2 0.8-0.2 1.9 0.6 2.8 0.8zm-7.6-5.2q0-0.4-2.6-0.4-0.8 0.5-1 0.8 0.2 0 0.4 0 1.3 0 1.3-0.3h-1.1q0.4-0.1 2.6-0.1 0.3 0 0.4 0zm1.4 1.2q-0.9-0.1-2.9-0.4 1.4 1.2 2.5 1.2 0.1 0 0.4-0.8zm44.2 31.9q-1.2-0.9-1.8-0.9l-0.5 0.9 1.1 0.3q-0.3 0-0.3-0.1 0-0.2 1.5-0.2zm-1.8-1.6q-1.3-0.4-4-1.2l2.3 1.9q0.5 0.1 0.6 0.1 0.4 0 0.7-0.3 0.3-0.5 0.4-0.5zm-9.5-5.5q0 0-0.3-0.1-0.3 0-0.3 0-3.5-0.4-5.2-0.4h0.2q0 0.1-1.3 0.8l0.6 0.8q0 0 4 0l-0.6-0.8q0.8-0.1 2.3-0.2 0.6 0 0.6-0.1zm-40.7-24.9q-0.4-0.6-1.9-0.7l0.7 1.1 0.4 0.1q0.8 0 0.8-0.5zm48.8 35.9q-0.1-0.4-1-0.4-0.8 0-0.8 0.2 0 0.1 1.5 0.7 0.3-0.4 0.3-0.5zm-52-35.7q0-0.3-2.6-1.7-1.8-0.8-3.4-1.6l0.5 2q0.4 0.1 1 0.1 1-0.1 0.9-0.1 0.5 0 1.3 0.7 0.8 0.7 2.2 0.7 0.1 0 0.1-0.1zm0.2 1.5h1.1q-0.1-0.1-0.1-0.6 0-0.2-1-0.2zm48.5 24l1.9-0.1q-1.4-0.9-4.5-2.4v-0.4q0.3 0.1 0.5-0.3 0.4-0.4 0.4-0.6-0.3-0.7-1.5-0.7v-1.1q-1.4 0.3-4.5 1.1 0-0.7-0.6-2v-1.2q0 0-3.4 0 0 0 0-2l-0.4 0.1q-0.3 0-0.2-0.2l0.6-1.1h0.5q0.3 0 0.7 0.3 0.4 0.2 0.6 0.2h0.5v-0.9q-0.2 0-2.8-0.3l-0.6-2q0.9-0.2 1.3-0.2 0.1 0-0.2 0.2h1.7q0.4 0 0.8 0.4 0.6 0.2 0.9 0.4l-0.6-1.3q-0.3-0.2-1.5-0.3-1.1-0.2-1.1-0.3 0.8-0.4 2.1-1.3h-1.3q-1.3 0.1-1.3-0.1 0.5-0.3 1.4-0.3l-0.1-1.4 0.1-0.6-2.2-0.4q-0.2 0.4-1.1 2 0.8 0 0.8 1 0 0.8-0.3 1.4-0.5-0.4-1.4-1.9-0.9-1.4-1.4-1.7-3.5-1.9-11.2-2.2-10.4-0.3-12-0.6 0.3 0.1 0.3 0.5h0.3l1.1 0.3q0.1 2.6 0.3 5.2 0 3.1 0.8 5.1 0 0-0.8 0-0.3 0-0.3 0.4h1.1v1.2l-1.1 0.4h1.1q0 0.4 0.1 1.2 0.2 0.9 0.2 1.3 0 0-0.3 1.2-1.2 0.4-1.2 0.7 0 0 0.1 0h1.1v17.6h1.7q7.5 0 10.8-0.9 1.3-0.6 3.9-1.6 0.8 0.2 1.2 0.2 0.2 0 0.5-0.2l2.8-2.3h1.2q0.6-0.6 0.7-1.8 0.2-1.3 0.4-1.8l1.2-0.4 0.1-0.5q0-0.9-0.4-2.4-0.3-1.6-0.3-2.4v-0.3l1.1-0.8q0.1-0.3 0.6-4 0.1 0.2 1.7 0.4v0.8h-0.2q-0.4 0-0.4 0.3 0 0.5 1.1 0.5-0.1 0-0.1-0.3 0-0.3 0.7-0.5 0.2 0.6 1.2 1.6 0.7 0.5 2.7 0.5 2.1 0 2.9 0.3l0.6 1.2q0.5 0.1 0.9 0.1zm0 10.1q-0.6-0.5-1.5-0.6v0.8h0.8q0.7 0 0.7-0.2zm-46.2-32.1q-0.3-0.2-1.2-1.2h-1.6q0.3 0.1 0.9 0.9 0.6 0.8 1.2 0.8 0.6 0 0.7-0.5zm0.6 3.2h1.1q-0.2-0.1-0.2-0.6 0-0.2-0.9-0.2zm6.2 2q0 0 0-2.4 0 0-0.9 0 0.3 0-0.3-0.4l-0.5-0.4 0.3 0.1q0.2-0.1 0.2-0.2 0-0.4-0.5-1.1-0.2 0-0.6 0h-1.1q0.2 0.4 0.5 1.3l-0.5 0.7q0 0 0.8 0 0.3 0 0.3 0.4-0.7 0.1-1.1 0.8-0.4 0.1-1.4 0.1-1.4 0-6-0.5 0.7 0.5 2.8 2.8 1.1-0.3 2.9-0.8l-0.6-0.8 0.9-0.1q1.2 0 2.5 0.9 1.4 0.8 1.8 0.8 0.3 0 0.3-0.2 0-0.1-0.1-0.3-0.1-0.3-0.1-0.3 0-0.3 0.4-0.4zm-9.9-2.8q-0.2-0.4-1-0.4-0.8 0-0.8 0.1 0 0.4 1.5 0.7 0.3-0.2 0.3-0.4zm41.1 29.6q0-0.5-1.8-0.5l1.7 0.8q0.1-0.1 0.1-0.3zm-43-29.8q-0.5-0.5-1.8-0.6l0.6 0.8 0.6 0.1q0.6 0 0.6-0.3zm49.7 36.1l0.1-0.3q0-0.5-1.3-0.5-0.8 0-0.9 0.1 0 0.3 2.1 0.7zm-36.3-24.4q0-0.3-2.8-1.5l1.2 2q1.6 0 1.6-0.5zm-2.6-2.4q0-0.4-1.2-0.8-1.1-0.5-1.8-0.5-0.4 0-1.1 0.1-0.8 0.1-1.1 0.1 1 0.4 1.9 0.9 1 0.4 2.7 0.4 0.6 0 0.6-0.2zm-11-4.8q-0.3-0.4-1-0.7v0.8l0.6 0.1q0.4 0 0.4-0.2zm43.9 35.2q-0.4-0.7-1.9-0.8l0.5 1.2h0.5q0.9 0 0.9-0.4zm-36.8-21.1l0.3-0.1q-0.4-0.2-2.2-0.7v0.7zm26.6 18.3q0-0.4-0.9-0.4-0.8 0-0.8 0.2 0 0.1 1.5 0.6 0.2-0.1 0.2-0.4zm-1.2-1.3q-0.6-0.4-2.3-0.7v-0.8h-0.6q-1.9 0-1.7 0 0 0 0 0.7 0 0.1-0.6 0.1-0.7-0.8-1.7-0.8 0.2 0.1 0.2 0.2 0 0.2-0.7 1.1 0.4 0 1.5 0.2 1.1 0.2 1.7 0.2l0.7-0.1q0.3-0.7 1.2-0.8 2 0.7 2.3 0.7zm-28.9-16.7q-0.2-0.3-0.8-0.3-0.5 0-1.3 0.5-0.7 0.5-0.8 0.9 0.2 0.2 0.7 0.2 0.7 0 1.4-0.4 0.8-0.5 0.8-0.9zm-3.6 1.6q-0.3-0.3-1-0.3l-0.6 0.8q1.6-0.3 1.6-0.5zm12.6 9.6q-0.5-0.4-1.3-0.4h-0.4v0.4q-0.1 0.1-0.4 0.1-0.1 0-0.2 0.1h0.2q1.1 0 2.1-0.2zm-2.3 1.6l-0.5-1.1h-1.8l0.6 1.6q-1 0-1 0.1 0.8 0.4 1.6 0.6 0 0 0.3-0.7 0.1-0.3 0.8-0.5zm-1.1 6q-0.2-0.1-0.2-0.6 0-0.2-0.4-0.2-1.2 0-1.2 0.3 0.6 0.2 1.8 0.5zm-5.1-2.3h1.1q-0.2-0.2-0.2-0.7 0-0.2-0.9-0.2zm32.7-38.5l-0.5 0.6q-1.2-0.2-1.2-0.5 0.3-0.3 1.2-0.3 0.5 0 0.5 0.2zm4.1 16.6l0.3 0.1q-0.3 0.3-0.9 0.3l0.6 0.8h-1.1q-0.1 0.4-0.1-1.2 0-0.8 0.6-0.8zm90.7 29.5q0.8 0-5.2 0-1.2 0-3.7 0.4-2.5 0.4-3.9 0.4-2.1 0-5.6-0.5-4-0.6-5.6-0.7-0.7-1.6-1.2-2.7-1-2-1.6-2.4-0.6 0-1.7-0.4-0.3-0.4-1-2.6-0.4-1.6-2.3-1.7l-0.6-1.6h0.8q2.5 0 3.8-0.4 1.2-0.5 2.1-1.9-0.6 0.2-1.7 0-0.7 0.2-0.5 1.2 0.3-0.1-2.8-0.1-0.7 0-1.3 0.6-0.7 0.5-0.9 0.6-2.7-4.8-5.1-6.2 0.5-0.2 1.2-1.2l1.9 0.1 0.8-0.1v-0.8l-0.9 0.2q0-0.2 0.9-0.6l-0.5-0.8q1.4-0.9 2.2-1.2v-0.4q0.3 0 0.7 0 0.5 0.1 0.7 0.1l0.3-0.1v-0.7q-1 0-2.8 0.3-0.3 0.2-0.4 0.6-0.1 0.5-0.2 0.6-0.3 0.5-1.5 1.1-0.9 0.4-1.8 0.9-1.4-0.5-3.5-0.8-3.2-0.3-3.7-0.4-1.1-0.6-1.1-0.9 0 0 0.1 0l0.4 0.1v-1.2q-2.2 0-2.2 0v1.2q0-0.1-0.2-0.1-0.4 0-0.4 0.9 1.7 2.3 1.7 2.8 0 0.5-0.7 0.8-0.5 0.2-0.5 0.7 0 0.7 0.5 2.2 0.7 1.5 0.7 2.3 0 0.7-0.9 2.1-0.8 1.3-0.8 1.9 0 0.4 0.3 1.1 0.3 0.7 0.3 1.2 0 0.6-0.7 1.9-0.9 1.5-1 1.9-0.5-0.3-1.7-0.4v-1.2q-0.8-0.2-1.9-0.2-2 0.2-2 0.2v-0.8h0.2q0.8 0 3.2 0.4l0.5-2.4q-1-0.1-2.8-0.7h-0.5q0.5-0.6 1.7-1.6-1.1 0.1-1.7 0.1-1.7 0-1.7-0.3 0-0.2 0.6-0.5 0.7-0.3 0.7-0.4-0.1-0.1-0.7-0.1-0.4 0-0.5 0.2 0 0.3-0.1 0.6-0.4 0.3-0.5 0.8 0.9 0.2 0.9 0.4-0.5 0.6-0.9 0.8 1.8 0 1.8 0.5 0 0.8-3 2.2 0 0.9 1.1 0.9 0.3 0 0.6-0.1v2l-0.5 0.7q0.8 0.1 2.2 0.4-1.7 0.1-3.4 0-0.6 0.8-1.2 1.7-0.5 0.5-2.6 0.5-0.7 0-2.3-0.1-1.5-0.1-2.3-0.1 0.6-6.4 0.6-13.7 0 0 3.9 0l0.5-2.8q0.9-0.1 2.3-0.4v-1.2q-1.6 0.6-5 1.6l0.6-0.1q0.8 0 0.8 0.4 0 0-0.3 0.7-0.3 0.5 0 0.6-0.7-0.2-1.4-0.3-0.6-0.3-1.4-0.1 0.1-2 0.1-5.9 0-0.9 0.2-3.7 0.2-2.7 0.1-4.1 0-2.3-0.4-3.6-1.2-4-1.2-4.8 0-3.4 1.2-9 0 0 0.8 0 0.2 0 0.4-0.3l-0.9-0.2q0 0.3-0.9 0.5-0.8-4.8-0.8-5.3 0-1.2 0.3-2.1l1.6-1.2q5.6 0 16.6 0.2 11.1 0.2 16.5 0.2 1.4 0 3.9-0.2 2.6-0.3 3.8-0.3 1.4 0 3.8 0.7 2.4 0.5 3.9 0.5 2.1 0 6.4 3.6 4.5 3.5 4.9 5.1 0.1 0.4 0 1.1-0.2 0.8-0.2 1 0 0.3 0.2 0.7h1.1q0.5 3.2 0.5 2.8 0 0.7-0.9 1.8-1.1 1.2-1.3 1.7-0.3 0.7-0.4 2.9 0 1.9-0.7 3-0.2 0.3-2.1 1.7-2 1.3-2.4 1.4-0.5 0.1-1.6 0-0.4 0.2 0 1.2-1 0.1-2.8 0.4-1.1 0.3-2.5 1.1-1.8 1-2.5 1.2 0.4 0.5 0.5 1.2 0.6 0.1 1.2 0.2 0.5 0.1 0.5 0.7 0 0.2-0.3 0.5-0.3 0.3-0.3 0.4v0.2h1.7v1.1l-1.2 1.2q1.7-0.3 3.4-0.8 2.5 3.8 7.1 8.9 4 4.2 8 8.4zm-52.3-5.7l-1.3 0.6q0 0 0-0.6 0-0.2 0.5-0.2 0.8 0 0.8 0.2zm3.8 4.2v1.5q-1 0.2-1 0.2-0.5 0-0.5-0.4 0-1 1.5-1.3zm-2.7-1.2q0 0.3-0.8 0.8-0.7 0.4-1.2 0.4-0.5 0-0.5-0.5l0.6-0.7q0.8-0.2 1.5-0.2 0.4 0 0.4 0.2zm-4 2.4q0 0.1-1.8 0.7 0.2-0.1 0.5-0.5 0.2-0.3 0.9-0.3 0.4 0 0.4 0.1zm44.6-44.1q-0.2 0-0.2-0.6 0-0.2-0.5-0.2-1.4 0-1.4 0.3 0.8 0.4 2.1 0.5zm-6.7-2.3h1.1q-0.2-0.1-0.2-0.6 0-0.2-0.9-0.2zm-3.6-5.5q-0.1-0.1-0.4-0.1l-0.5 0.1-1.7 1.5h-1.6q-0.7 0.2-0.7 0.3 2.9 0.1 3.4 0.1 1.5-1.4 1.5-1.9zm14.2 13.3l1.1-1.6q-3.9 0-3.9 0 0.2 0.5 0.6 1.6zm-9.7-7.3q0-0.3-0.6-0.3-0.1 0-0.3 0.2-0.4 0.4-0.4 0.9 0 0.3 0.6 0.3 0.1 0 0.4-0.1 0.3-0.6 0.3-1zm-13.5-6.1q-0.2-0.1-0.6-0.1 0 0-0.7 0.2-1.1 1-1.1 1.4 0.1 0.2 0.3 0.2 0.4 0 1.2-0.6 0.8-0.7 0.9-1.1zm-0.8 4.4h1.1q-0.2-0.1-0.2-0.6 0-0.2-0.9-0.2zm11.7 8.2h1.1q-0.1 0-0.1-0.5 0-0.2-1-0.2zm1.6 1.7q-0.1-0.2-0.6-0.2-0.9 0-0.9 0.4 0 0.3 1 0.4 0.5-0.3 0.5-0.6zm-20.6-13.5q-0.1-0.1-0.1-0.6 0-0.2-0.4-0.2-1.2 0-1.2 0.2 0.6 0.2 1.7 0.6zm24.2 18.8q-0.5-0.2-2.4-0.3v0.4q1.9 0 2.4-0.1zm-22.4-15.3q-0.2 0-0.2-0.6 0-0.3-0.5-0.3-0.1 0-0.5 0.2l-0.6 0.7q-0.7 0.5-0.7 0.4 1.6-0.3 2.5-0.4zm24.3 21q-0.6-0.5-1.5-0.5v0.8h0.7q0.8 0 0.8-0.3zm-29.4-21q-1-0.9-0.6-1.1l-1.6-0.4v0.3q-0.2 0.6 0.5 0.8v0.4q-0.7 0-2.8-0.7-0.6 0.7-0.6 1.4 0 0.1-1.1 0.5-1 0.4-1 0.4v0.8q-0.2 0 2.2 0h0.5v-0.4q1.5-0.7 4.5-2zm18.6 10.3q0 0-0.2-3.2h-1.1q-0.5-1-1.1-1.9-0.5-0.8-2.3-0.8-0.3 0-0.5 0l0.6-1.2h-0.4q0.6 0-3 0.3l-1.1-0.7q1.5-0.1 1.5-0.3-0.1-0.1-0.4-0.1 0.7-0.1 2.3-0.4-0.7 0.2-0.8 0.2h-0.1q0-0.2 2.3-1.4 2.4-1.2 2.4-1.5l-2.2-0.8-1.6 1.9q0.1 0-1.9 0-0.6 0-1.1 0.9-0.6 0.9-0.9 1.1-2 0.9-7.9 0.9-1.6 0-4.3 0-2.7-0.1-3.5-0.1 0.4 1.3 1.1 3.9h-0.5l-0.7 0.2q-0.3-0.2-1-0.2-0.8 0.9-0.8 1.6 0 0.8 1.4 0.8l2.2-1.6q-0.3 1-0.3 3.2 0 1.2 0.1 3.7 0.2 2.4 0.2 3.7 5.8-0.1 7.9-0.2 4.3-0.1 7.7-0.6l1.7-0.8h0.6q0.6 0 1.5 0.2 1 0.2 1.5 0.2h0.3l1.1-0.8-1.7 0.4 0.1-0.2q0-0.1-0.3-0.3-0.4-0.2-0.4-0.4v-0.2l1.8-0.8q1.8-2.3 1.8-4.7zm-0.2 8.2l0.1-0.2q0-0.6-1.7-0.6-1.8 0-1.8 0.2zm-3.4 0.4v0.8q0 0-1.4 0-0.5 0-0.6 0.5-0.1 0.6-0.2 1-0.6-1.8-1.1-1.8-0.2 0-0.2 0.9 0 0.8 0.1 0.8 0.1-0.2 0.1-1.4h1.1l-0.1-1.2q0-0.3 0.1-0.4 0.8 0.2 2.2 0.8zm-22.2-8.3q-0.2 0-0.4-0.4-0.2-0.4-0.8-0.4l-0.6 0.1-1.1 0.7q0 0 2.9 0zm16.7 13.4h1.1q-0.2-0.1-0.2-0.6 0-0.2-0.9-0.2zm-18.1-18q-0.4 0-0.9-0.1v-0.7q0.6 0 0.6-0.3 0-0.2-0.6-0.5l-0.6-0.1q-0.5 0-1.4 0.3-0.8 0.2-1.4 0.2 0.3-0.5 0.3-0.8 0-0.5-1.7-0.5-0.9 0-2.6 0.4-1.6 0.3-2.5 0.3-1.4 0-1.4-0.4 0-0.4 0.7-1l-1.7-0.4-1.1 2.8q2.6 0.2 7.8 0.7 0.1-0.5 0.3-0.9 0-0.2 0.8-0.6 0 0 0 1.5 0 0.6-0.5 1.2h-0.6q-0.8 0.3-1.8 0.9-1.4 1-1.5 1.1 0 0.8 0.5 0.8 1.3 0 2.2-1.6 1.8-0.8 2.6-0.8 0.4 0 1.2 0.2 0.9 0.2 1.3 0.2-1.4-0.6-1.4-0.7h0.1q0.4 0 1.5 0.2 1.2 0.2 1.2 0.3h-0.1q-0.8 0-1.9-0.2v-0.4q-0.4 0.1-0.4-0.1 0-0.1 0.4-1.1 0.9 0.1 2.6 0.1zm41.7 36.5q0-0.4-0.9-0.4-0.8 0-0.8 0.1 0 0.2 1.5 0.7 0.2-0.3 0.2-0.4zm-44.3-29.5q-0.2-0.1-0.2-0.6 0-0.2-0.4-0.2-1.1 0-1.1 0.2 0.6 0.2 1.7 0.6zm47.8 34.4q-0.6-0.5-1.5-0.6v0.8h0.8q0.7 0 0.7-0.2zm-11.5-7.6l0.5 0.7q0 0 0-0.6 0-0.1-0.5-0.1zm-24.2-17.6q-0.2-0.3-0.4-0.3-0.2 0-0.6 0.1-0.7 1.1-0.7 1.6 0 0.2 0.3 0.2 0.5 0 0.9-0.7 0.5-0.6 0.5-0.9zm10.1 7.7q-0.4-0.3-1.5-0.4h1.1q-0.5-0.1-1.4-0.4-1-0.2-1.5-0.3 0 0.1-1 1.9 4.3-0.4 4.3-0.8zm-30-17.6h1.1q-0.2-0.2-0.2-0.6 0-0.3-0.9-0.3zm16.2 9.1q-0.9-0.4-1.2-1.3h-1.1v2.8q-0.7-0.2-1.3-0.2h-0.1q0 0.1 0.9 0.2v0.8l0.5 0.1q0.7 0 1.1-0.5 0.3-0.4 0.7-0.4l-0.1-0.2q0-0.3 0.3-0.7 0.3-0.4 0.3-0.6zm29.5 22.3q-0.5-0.3-1.6-0.3v0.7q1.6 0 1.6-0.4zm-19.5-11h1.2q-0.3-0.1-0.3-0.5 0-0.2-0.9-0.2zm-23.9-18.4q0-0.6-1-0.6l-0.7 0.1q0.1 0 0.1 0.2 0 0.2-0.7 1.4h1.7q0.6-0.7 0.6-1.1zm37.3 29.4q-0.7-0.8-1.7-0.8v1.2h0.6q1.1 0 1.1-0.4zm-29.6-18.5l1.8 0.4q-0.4-0.1-0.4-0.9 0-0.3-0.6-0.3h-0.8zm-5.9-3.5q-0.5-0.7-1.9-0.8l0.6 1.2h0.4q0.9 0 0.9-0.4zm0.4 1.6l1.6 0.4q-0.2-0.1-0.2-0.8 0-0.5-0.7-0.4h-0.7zm4.4 3.5q-0.1-0.1-0.5-0.5-0.4-0.4-1.7-0.7v1.2q1.5-0.1 2.2 0zm2.2 5.5q0 0-1.1-0.4-1-0.4-1-0.4 0-0.1 0.5 0v-0.8l-0.4-0.1q-0.1 0-0.6 0.1-0.4 0.1-0.7 0-2.9 1.6-5 2.4h0.1q0 0.2-0.6 0.7-0.5 0.4-0.5 0.6 0 0 0.2 0l0.2-0.1v0.4q5-2.2 8.9-2.4zm-7.2-2.2q-0.3-0.2-0.7-0.2-1.4 0-1.4 0.5 0.5 0.3 1.5 0.3 0.5-0.3 0.6-0.6zm7 8.1q0-0.7-0.6-0.7l-0.8 0.3q-0.5 1.2-0.5 1.8 0 0.7 0.5 0.7 1.4 0 1.4-2.1zm-6.7-0.4q-0.3 0-1.4 0 0 0 0-2l-1.1-0.4h-0.6q-0.1 0.1-0.2 0.4-0.1 0.3-0.9 0.4 0.2 0.3 0.6 1.6l1.6 0.4h-0.2 0.1q0.3 0 1.1-0.1 1-0.2 1-0.3z"/>
</svg>
